<svg viewBox="0 0 60 60" fill="none" xmlns="http://www.w3.org/2000/svg">
  <g clip-path="url(#clip0_728_3883)">
    <path d="M54.7265 15.4687H59.9999V3.67488C59.9999 2.96355 59.5722 2.32254 58.9148 2.05066C58.2585 1.77879 57.5015 1.92879 56.9987 2.43152L2.43167 56.9988C1.92893 57.5016 1.77893 58.2586 2.05081 58.9148C2.32268 59.5723 2.9637 60 3.67503 60H15.4688V55.3125C15.4688 54.3422 16.2563 53.5547 17.2266 53.5547C18.1969 53.5547 18.9844 54.3422 18.9844 55.3125V60H23.6719V55.3125C23.6719 54.3422 24.4594 53.5547 25.4297 53.5547C26.4 53.5547 27.1875 54.3422 27.1875 55.3125V60H31.875V55.3125C31.875 54.3422 32.6625 53.5547 33.6328 53.5547C34.6032 53.5547 35.3907 54.3422 35.3907 55.3125V60H40.0782V55.3125C40.0782 54.3422 40.8657 53.5547 41.836 53.5547C42.8063 53.5547 43.5938 54.3422 43.5938 55.3125V60H48.2813V55.3125C48.2813 54.3422 49.0688 53.5547 50.0391 53.5547C51.0094 53.5547 51.7969 54.3422 51.7969 55.3125V60H58.2422C59.2125 60 60 59.2125 60 58.2422V51.7969H55.3125C54.3422 51.7969 53.5547 51.0094 53.5547 50.0391C53.5547 49.0687 54.3422 48.2812 55.3125 48.2812H60V43.5937H55.3125C54.3422 43.5937 53.5547 42.8062 53.5547 41.8359C53.5547 40.8656 54.3422 40.0781 55.3125 40.0781H60V35.3906H55.3125C54.3422 35.3906 53.5547 34.6031 53.5547 33.6328C53.5547 32.6625 54.3422 31.875 55.3125 31.875H60V27.1875H55.3125C54.3422 27.1875 53.5547 26.4 53.5547 25.4297C53.5547 24.4594 54.3422 23.6719 55.3125 23.6719H60V18.9844H54.7266C53.7563 18.9844 52.9688 18.1969 52.9688 17.2266C52.9688 16.2562 53.7562 15.4687 54.7265 15.4687ZM49.453 47.6953C49.453 48.6656 48.6655 49.4531 47.6952 49.4531H29.1374C28.4261 49.4531 27.7851 49.0254 27.5132 48.368C27.2413 47.7117 27.3913 46.9547 27.8941 46.452L46.4519 27.8941C46.9546 27.3914 47.7116 27.2414 48.3679 27.5133C49.0253 27.7852 49.453 28.4262 49.453 29.1375V47.6953Z" fill="currentcolor"/>
    <path d="M5.42476 34.0336L12.8826 41.4914L7.97241 46.4004C7.28452 47.0883 6.17124 47.0848 5.48687 46.4004L0.514602 41.4281C-0.174461 40.7391 -0.168601 39.6258 0.514602 38.9426L5.42476 34.0336Z" fill="currentcolor"/>
    <path d="M40.8447 13.0453C41.0087 13.0453 41.1751 13.0406 41.3427 13.0312L15.3682 39.0059L7.9104 31.548L33.5427 5.91562C33.5814 7.90663 34.2915 9.66913 35.604 10.9828C36.9564 12.3339 38.7822 13.0453 40.8447 13.0453Z" fill="currentcolor"/>
    <path d="M46.746 2.51121L43.7413 8.84402C41.5933 9.82371 39.3656 9.77215 38.0894 8.49597C36.9328 7.33933 36.7828 5.39988 37.4953 3.44636L44.4035 0.169801C45.0749 -0.148949 45.8753 -0.0106676 46.4003 0.514332C46.9253 1.0405 47.0636 1.83972 46.746 2.51121Z" fill="currentcolor"/>
  </g>
  <defs>
    <clipPath id="clip0_728_3883">
      <rect width="60" height="60" fill="currentcolor"/>
    </clipPath>
  </defs>
</svg>
