<svg viewBox="0 0 121 120" fill="none" xmlns="http://www.w3.org/2000/svg">
  <g clip-path="url(#clip0_1960_7885)">
    <path fill-rule="evenodd" clip-rule="evenodd" d="M60.5 0C27.4844 0 0.5 26.9849 0.5 60C0.5 93.0151 27.4844 120 60.5 120C93.5156 120 120.5 93.0151 120.5 60C120.501 26.9844 93.5161 0 60.5 0ZM87.6619 76.4667C90.615 79.4198 90.615 84.2082 87.6619 87.1613C84.7087 90.1145 79.9203 90.1145 76.9672 87.1613L60.5005 70.6941L44.0338 87.1613C41.0807 90.1145 36.2923 90.1145 33.3392 87.1613C30.3861 84.2082 30.3861 79.4198 33.3392 76.4667L49.8059 60L33.3392 43.5333C30.3861 40.5802 30.3861 35.7918 33.3392 32.8387C36.2923 29.8855 41.0807 29.8855 44.0338 32.8387L60.5005 49.3059L76.9672 32.8387C79.9203 29.8855 84.7087 29.8855 87.6619 32.8387C90.615 35.7918 90.615 40.5802 87.6619 43.5333L71.1951 60L87.6619 76.4667Z" fill="currentcolor"/>
  </g>
  <defs>
    <clipPath id="clip0_1960_7885">
      <rect width="120" height="120" fill="currentcolor" transform="translate(0.5)"/>
    </clipPath>
  </defs>
</svg>
