<svg viewBox="0 0 80 80" fill="none" xmlns="http://www.w3.org/2000/svg">
  <path d="M47.5 1H9.16667C4.1 1 0 5.1 0 10.1667V61.8333C0 66.9 4.1 71 9.16667 71H33.7667L34.5 66.9C34.8333 65.0333 35.7 63.3667 37.0333 62L56.6667 42.4V10.1667C56.6667 5.1 52.5667 1 47.5 1ZM13.3333 15H26.6667C28.5 15 30 16.1667 30 18C30 19.8333 28.5 21 26.6667 21H13.3333C11.5 21 10 19.8333 10 18C10 16.1667 11.5 15 13.3333 15ZM30 47.6667H13.3333C11.5 47.6667 10 46.8333 10 45C10 43.1667 11.1667 42 13 42C13 42 18.2456 42 21.5 42C24.7544 42 30 42 30 42C31.8333 42 33 43.1667 33 45C33 46.8333 31.8333 47.6667 30 47.6667ZM43.3333 34.3333H13.3333C11.5 34.3333 10 33.3333 10 31.5C10 29.6667 11.5 28.5 13.3333 28.5H43.3333C45.1667 28.5 46.5 29.6667 46.5 31.5C46.5 33.3333 45.1667 34.3333 43.3333 34.3333Z" fill="currentcolor"/>
  <path d="M40.7599 79C40.1033 79 39.4633 78.74 38.9933 78.2667C38.4166 77.69 38.1566 76.87 38.2999 76.0633L40.0666 66.0467C40.1533 65.5433 40.3999 65.0767 40.7599 64.7133L65.5099 39.9667C68.5499 36.92 71.5366 37.7433 73.1699 39.3767L77.2933 43.5C79.5699 45.7733 79.5699 49.4733 77.2933 51.75L52.5433 76.5C52.1833 76.8633 51.7166 77.1067 51.2099 77.1933L41.1933 78.96C41.0499 78.9867 40.9033 79 40.7599 79ZM50.7766 74.7333H50.8099H50.7766Z" fill="currentcolor"/>
</svg>
