<svg viewBox="0 0 60 60" fill="none" xmlns="http://www.w3.org/2000/svg">
  <g clip-path="url(#clip0_1965_7948)">
    <path d="M39.5388 12.8745C39.5388 11.6551 39.0629 10.5072 38.2005 9.64476L33.894 5.33835C33.0436 4.48777 31.8363 4 30.6347 4H30.373V13.1362H39.5389L39.5388 12.8745Z" fill="currentcolor"/>
    <path d="M39.5815 33.4525C39.5815 32.5862 39.5815 31.4797 39.5815 29.9875V22.7776V16.1816H28.8819C28.0403 16.1816 27.4087 15.5006 27.4087 14.6589V4H4.56811C2.04915 4 0 6.04915 0 8.56811V51.4068C0 53.9258 2.04915 55.9749 4.56811 55.9749H34.9727C37.4917 55.9749 39.5815 53.9258 39.5815 51.4068V40.0423V39.326C39.5815 38.7726 39.5815 39.242 39.5815 38.2168V37.3506V36.4843C39.5815 36.1859 39.5815 36.105 39.5815 35.6181C39.5815 35.361 39.5815 35.0132 39.5815 34.7518V33.4525ZM7.61352 31.4087H22.7911C23.6328 31.4087 24.3138 32.0897 24.3138 32.9314C24.3138 33.773 23.6328 34.4541 22.7911 34.4541H7.61352C6.77187 34.4541 6.09081 33.773 6.09081 32.9314C6.09081 32.0897 6.77187 31.4087 7.61352 31.4087ZM6.09081 26.8406C6.09081 25.9989 6.77187 25.3178 7.61352 25.3178H22.7911C23.6328 25.3178 24.3138 25.9989 24.3138 26.8406C24.3138 27.6822 23.6328 28.3633 22.7911 28.3633H7.61352C6.77187 28.3633 6.09081 27.6822 6.09081 26.8406ZM6.09081 39.0222C6.09081 38.1805 6.77187 37.4995 7.61352 37.4995H22.7911C23.6328 37.4995 24.3138 38.1805 24.3138 39.0222C24.3138 39.8638 23.6328 40.5449 22.7911 40.5449H7.61352C6.77187 40.5449 6.09081 39.8638 6.09081 39.0222ZM28.8819 46.6357C29.7236 46.6357 30.4046 47.3168 30.4046 48.1584C30.4046 49 29.7237 49.6811 28.8819 49.6811H19.7457C18.9041 49.6811 18.223 49 18.223 48.1584C18.223 47.3168 18.9041 46.6357 19.7457 46.6357H28.8819ZM7.61352 22.2724C6.77187 22.2724 6.09081 21.5914 6.09081 20.7497C6.09081 19.9081 6.77187 19.227 7.61352 19.227H28.8819C29.7236 19.227 30.4046 19.9081 30.4046 20.7497C30.4046 21.5914 29.7236 22.2724 28.8819 22.2724H7.61352Z" fill="currentcolor"/>
    <path d="M42.1727 46.801H25.3377C22.0025 46.801 19.291 49.5124 19.291 52.8476V53.8799C19.291 55.3841 20.5156 56.6087 22.0199 56.6087H45.4906C47.0169 56.6087 48.2194 55.3743 48.2194 53.8799V52.8476C48.2194 49.5124 45.508 46.801 42.1727 46.801Z" fill="currentcolor" stroke="currentcolor" stroke-width="3"/>
    <path d="M30.9772 28.9852C29.5805 31.8429 28.6991 34.912 28.3709 38.0792C27.3289 38.2215 26.4117 38.9602 26.1061 40.0402C25.6989 41.4788 26.5169 42.9753 27.9515 43.4084L27.9637 43.4121L27.9761 43.4156L30.188 44.0423L30.3885 44.0991H30.3971L38.4143 46.412L38.4143 46.412L38.4212 46.414L40.6082 47.0336C40.8969 47.1242 41.1615 47.1467 41.3738 47.1467C42.5382 47.1467 43.6515 46.4015 43.9952 45.176C44.3114 44.1002 43.9281 42.9889 43.1211 42.318C43.1526 42.2539 43.1838 42.1896 43.2147 42.1251L55.234 45.9575L55.2595 45.9657L55.2852 45.9729C55.705 46.0904 56.1611 46.1636 56.6236 46.1636C57.4562 46.1636 58.2555 45.945 58.9784 45.5491C60.1182 44.9256 60.9542 43.8745 61.3097 42.6192C61.6832 41.3318 61.4981 39.9964 60.8541 38.8627C60.1968 37.6932 59.1208 36.8721 57.8199 36.5381L57.4469 37.9909L57.8185 36.5378L45.7068 33.4405C45.715 33.3684 45.723 33.2963 45.7306 33.2241C46.7685 33.0842 47.6824 32.3522 47.9877 31.2821C48.4174 29.8285 47.5693 28.3091 46.1237 27.8978C46.1225 27.8974 46.1213 27.8971 46.12 27.8967L33.4815 24.2611L33.4815 24.2611L33.4683 24.2574C32.0162 23.854 30.5109 24.6895 30.0998 26.1421C29.7991 27.2043 30.1678 28.3141 30.9772 28.9852Z" fill="currentcolor" stroke="currentcolor" stroke-width="3"/>
  </g>
  <defs>
    <clipPath id="clip0_1965_7948">
      <rect width="60" height="60" fill="currentcolor"/>
    </clipPath>
  </defs>
</svg>
