<svg viewBox="0 0 60 61" fill="none" xmlns="http://www.w3.org/2000/svg">
  <path d="M44.9921 10.7448C44.9921 9.33711 44.4505 8.01195 43.4692 7.01633L38.569 2.045C37.6012 1.06309 36.2275 0.5 34.8603 0.5H34.5625V11.0469H44.9922L44.9921 10.7448Z" fill="currentcolor"/>
  <path fill-rule="evenodd" clip-rule="evenodd" d="M35.2908 60.5H5.19797C2.33169 60.5 0 58.1345 0 55.2266V5.77344C0 2.86555 2.33169 0.5 5.19797 0.5H31.1878V12.8047C31.1878 13.7763 31.9065 14.5625 32.8642 14.5625H45.039V22.1769V25.0055C44.8875 25.0018 44.7356 25 44.5832 25C35.8568 25 28.5244 31.055 26.4452 39.2496C26.2835 39.1991 26.1117 39.1719 25.9336 39.1719H8.66329C7.70559 39.1719 6.93063 39.9581 6.93063 40.9297C6.93063 41.9013 7.70559 42.6875 8.66329 42.6875H25.8991C25.8699 43.1212 25.8551 43.5588 25.8551 44C25.8551 45.9928 26.1575 47.9139 26.7183 49.7188H22.4683C21.5106 49.7188 20.7356 50.505 20.7356 51.4766C20.7356 52.4482 21.5106 53.2344 22.4683 53.2344H28.2119C29.8743 56.2613 32.3287 58.7793 35.2908 60.5ZM25.9336 32.1406H8.66329C7.70559 32.1406 6.93063 32.9268 6.93063 33.8984C6.93063 34.87 7.70559 35.6562 8.66329 35.6562H25.9336C26.8913 35.6562 27.6663 34.87 27.6663 33.8984C27.6663 32.9268 26.8913 32.1406 25.9336 32.1406ZM8.66329 25.1094C7.70559 25.1094 6.93063 25.8956 6.93063 26.8672C6.93063 27.8388 7.70559 28.625 8.66329 28.625H25.9336C26.8913 28.625 27.6663 27.8388 27.6663 26.8672C27.6663 25.8956 26.8913 25.1094 25.9336 25.1094H8.66329ZM6.93063 19.8359C6.93063 20.8075 7.70559 21.5938 8.66329 21.5938H32.8642C33.8219 21.5938 34.5969 20.8075 34.5969 19.8359C34.5969 18.8643 33.8219 18.0781 32.8642 18.0781H8.66329C7.70559 18.0781 6.93063 18.8643 6.93063 19.8359Z" fill="currentcolor"/>
  <path d="M44.4064 28C35.8079 28 28.8125 35.097 28.8125 43.8203C28.8125 52.5436 35.8079 59.6406 44.4064 59.6406C53.0049 59.6406 60.0003 52.5436 60.0003 43.8203C60.0003 35.097 53.0049 28 44.4064 28ZM51.2915 41.8991L43.2058 50.1023C42.8676 50.4455 42.4241 50.6172 41.9807 50.6172C41.5373 50.6172 41.0938 50.4455 40.7556 50.1023L37.2903 46.5866C36.6136 45.9003 36.6136 44.7872 37.2903 44.1007C37.9668 43.4144 39.0639 43.4144 39.7406 44.1007L41.9807 46.3735L48.8413 39.4132C49.5179 38.7269 50.615 38.7269 51.2917 39.4132C51.9682 40.0997 51.9682 41.2128 51.2915 41.8991Z" fill="currentcolor"/>
</svg>
