<svg viewBox="0 0 80 80" fill="none" xmlns="http://www.w3.org/2000/svg">
  <path fill-rule="evenodd" clip-rule="evenodd" d="M0 28.9428C11.8909 33.1739 25.2213 35.2941 40 35.2941C54.7787 35.2941 68.1091 33.1739 80 28.9428V21.1764C80 17.278 76.8397 14.1177 72.9412 14.1177H58.8236L58.8234 9.41173C58.8234 4.21376 54.6097 0 49.4117 0H30.5881C25.3902 0 21.1764 4.21376 21.1764 9.41173V14.1177H7.05875C3.16031 14.1177 0 17.278 0 21.1764V28.9428ZM25.8823 14.1177H21.1764V23.5294C21.1764 24.8289 22.2298 25.8823 23.5294 25.8823C24.8289 25.8823 25.8823 24.8289 25.8823 23.5294V14.1177ZM54.1177 14.1177H25.8823V9.41173C25.8823 6.81266 27.9894 4.70578 30.5883 4.70578H49.4116C52.0106 4.70578 54.1175 6.81266 54.1175 9.41173L54.1177 14.1177ZM54.1177 14.1177V23.5294C54.1177 24.8289 55.1711 25.8823 56.4706 25.8823C57.7702 25.8823 58.8236 24.8289 58.8236 23.5294V14.1177H54.1177ZM72.9412 68.2353C76.8397 68.2353 80 65.075 80 61.1766V33.9234C67.9884 37.9773 54.6525 40.0002 40 40.0002C25.3475 40.0002 12.0116 37.9772 0 33.9234V61.1766C0 65.075 3.16031 68.2353 7.05875 68.2353H19.7734C19.2693 66.4095 19 64.4862 19 62.5C19 50.6259 28.6259 41 40.5 41C52.3741 41 62 50.6259 62 62.5C62 64.4862 61.7307 66.4095 61.2266 68.2353H72.9412Z" fill="currentcolor"/>
  <path d="M39.9993 45C30.5828 45 23 52.6321 23 62.0007C23 71.3739 30.6261 79 39.9993 79C49.3739 79 56.9985 71.3739 56.9985 62.0007C56.9985 52.6605 49.4396 45 39.9993 45ZM46.4253 65.2556C47.3011 66.1314 47.3011 67.5511 46.4253 68.4268C45.5542 69.2979 44.1341 69.3053 43.2556 68.4268L39.9993 65.1705L36.7429 68.4268C35.8676 69.3021 34.4474 69.3011 33.5732 68.4268C32.6974 67.5511 32.6974 66.1314 33.5732 65.2556L36.8295 62.0007L33.5732 58.7444C32.6974 57.8686 32.6974 56.4489 33.5732 55.5732C34.4489 54.6989 35.8686 54.6989 36.7429 55.5732L39.9993 58.8295L43.2556 55.5732C44.1314 54.6989 45.5496 54.6989 46.4253 55.5732C47.3011 56.4489 47.3011 57.8686 46.4253 58.7444L43.1705 62.0007L46.4253 65.2556Z" fill="currentcolor"/>
</svg>
