<svg viewBox="0 0 80 80" fill="none" xmlns="http://www.w3.org/2000/svg">
  <g clip-path="url(#clip0_661_7657)">
    <path d="M10.9515 25.9134C9.57307 25.9134 8.40355 26.3941 7.44219 27.3555C6.48083 28.3168 6 29.4704 6 30.8169V51.4898C6 52.8699 6.48068 54.0384 7.44219 54.9999C8.40355 55.9613 9.57307 56.4421 10.9515 56.4421C12.3288 56.4421 13.4913 55.9614 14.4377 54.9999C15.3823 54.0385 15.8559 52.8699 15.8559 51.4898V30.8169C15.8559 29.4703 15.3752 28.3168 14.4137 27.3555C13.4522 26.3941 12.2979 25.9134 10.9515 25.9134Z" fill="currentcolor"/>
    <path d="M50.7578 7.35537L54.1714 1.05835C54.3954 0.641457 54.3157 0.321775 53.9315 0.0969847C53.5145 -0.0968499 53.1941 0.00136924 52.9702 0.384699L49.5089 6.73206C46.4632 5.38549 43.242 4.71097 39.8451 4.71097C36.4475 4.71097 33.2259 5.38563 30.1814 6.73206L26.72 0.384699C26.4951 0.00136924 26.1747 -0.095982 25.7587 0.0969847C25.3736 0.322788 25.2939 0.641457 25.5188 1.05835L28.9325 7.35537C25.4711 9.12057 22.7143 11.5789 20.6631 14.7358C18.612 17.8945 17.5859 21.3462 17.5859 25.097H62.0559C62.0559 21.347 61.0298 17.8952 58.9787 14.7358C56.9274 11.5789 54.1865 9.12057 50.7578 7.35537ZM31.0224 16.5145C30.6533 16.8845 30.2124 17.0687 29.6999 17.0687C29.1864 17.0687 28.7544 16.8845 28.4021 16.5145C28.0497 16.1462 27.8735 15.707 27.8735 15.1928C27.8735 14.6803 28.0497 14.2403 28.4021 13.8711C28.7544 13.5028 29.1874 13.3187 29.6999 13.3187C30.2124 13.3187 30.6533 13.5028 31.0224 13.8711C31.3907 14.2411 31.5757 14.6803 31.5757 15.1928C31.5747 15.7062 31.3899 16.1462 31.0224 16.5145ZM51.2863 16.5145C50.9332 16.8845 50.5002 17.0687 49.9886 17.0687C49.4749 17.0687 49.0342 16.8845 48.6657 16.5145C48.2967 16.1462 48.1126 15.707 48.1126 15.1928C48.1126 14.6803 48.2967 14.2403 48.6657 13.8711C49.0342 13.5028 49.4749 13.3187 49.9886 13.3187C50.5011 13.3187 50.933 13.5028 51.2863 13.8711C51.6389 14.2411 51.8148 14.6803 51.8148 15.1928C51.8148 15.7062 51.6388 16.1462 51.2863 16.5145Z" fill="currentcolor"/>
    <path d="M17.7773 58.8455C17.7773 60.3212 18.2898 61.5705 19.315 62.5956C20.341 63.6208 21.5902 64.1333 23.065 64.1333H26.6229L26.6716 75.0479C26.6716 76.4262 27.1523 77.5965 28.1136 78.558C29.075 79.5196 30.2295 80.0002 31.575 80.0002C32.9526 80.0002 34.1228 79.5196 35.0843 78.558C36.0458 77.5965 36.5265 76.4263 36.5265 75.0479V64.1343H43.1609V75.0479C43.1609 76.4262 43.6414 77.5965 44.6029 78.558C45.5644 79.5196 46.7336 80.0002 48.1122 80.0002C49.4897 80.0002 50.6599 79.5196 51.6214 78.558C52.583 77.5965 53.0635 76.4263 53.0635 75.0479V64.1343H56.6694C58.1114 64.1343 59.3446 63.6216 60.3716 62.5965C61.3966 61.5713 61.9094 60.3221 61.9094 58.8465V26.826H17.7773V58.8455Z" fill="currentcolor"/>
    <path d="M68.7395 25.9134C67.3929 25.9134 66.2395 26.387 65.278 27.3316C64.3166 28.2779 63.8359 29.4404 63.8359 30.8169V51.4898C63.8359 52.8699 64.3165 54.0384 65.278 54.9999C66.2395 55.9614 67.3938 56.4421 68.7395 56.4421C70.117 56.4421 71.2873 55.9614 72.2488 54.9999C73.2103 54.0384 73.6908 52.8699 73.6908 51.4898V30.8169C73.6908 29.4402 73.2103 28.2779 72.2488 27.3316C71.2873 26.387 70.117 25.9134 68.7395 25.9134Z" fill="currentcolor"/>
  </g>
  <defs>
    <clipPath id="clip0_661_7657">
      <rect width="80" height="80" fill="currentcolor"/>
    </clipPath>
  </defs>
</svg>
