<svg viewBox="0 0 24 24" fill="none" xmlns="http://www.w3.org/2000/svg">
  <path d="M21.2896 1.68145C21.2896 0.754355 20.5353 0 19.6082 0H4.39044C3.46334 0 2.70898 0.754355 2.70898 1.68145V5.80645H21.2896V1.68145Z" fill="currentcolor"/>
  <path d="M22.7053 7.35484H1.29398C0.793654 7.35484 0.386719 7.76177 0.386719 8.26209V17.2863C0.386719 17.7866 0.793654 18.1935 1.29398 18.1935H4.64478V15.2298C4.64478 13.8755 5.74607 12.7742 7.10043 12.7742H16.8988C18.2532 12.7742 19.3545 13.8755 19.3545 15.2298V18.1935H22.7053C23.2056 18.1935 23.6125 17.7866 23.6125 17.2863V8.26209C23.6125 7.76177 23.2056 7.35484 22.7053 7.35484ZM20.5158 10.8387H19.3545C18.9267 10.8387 18.5803 10.4923 18.5803 10.0645C18.5803 9.63677 18.9267 9.29032 19.3545 9.29032H20.5158C20.9435 9.29032 21.2899 9.63677 21.2899 10.0645C21.2899 10.4923 20.9435 10.8387 20.5158 10.8387ZM16.8988 14.3226H7.10043C6.60011 14.3226 6.19317 14.7295 6.19317 15.2298V23.0927C6.19317 23.5931 6.60011 24 7.10043 24H16.8988C17.3991 24 17.8061 23.5931 17.8061 23.0927V15.2298C17.8061 14.7295 17.3991 14.3226 16.8988 14.3226ZM14.3222 21.6774H9.67704C9.2493 21.6774 8.90285 21.331 8.90285 20.9032C8.90285 20.4755 9.2493 20.129 9.67704 20.129H14.3222C14.7499 20.129 15.0964 20.4755 15.0964 20.9032C15.0964 21.331 14.7499 21.6774 14.3222 21.6774ZM14.3222 18.1935H9.67704C9.2493 18.1935 8.90285 17.8471 8.90285 17.4194C8.90285 16.9916 9.2493 16.6452 9.67704 16.6452H14.3222C14.7499 16.6452 15.0964 16.9916 15.0964 17.4194C15.0964 17.8471 14.7499 18.1935 14.3222 18.1935Z" fill="currentcolor"/>
</svg>
