<svg viewBox="0 0 80 80" fill="none" xmlns="http://www.w3.org/2000/svg">
  <g clip-path="url(#clip0_654_8666)">
    <path d="M39.9997 53.3332C41.9092 53.3332 44.5948 48.1697 44.9329 40H35.0664C35.4045 48.1697 38.0902 53.3332 39.9997 53.3332Z" fill="currentcolor"/>
    <path d="M25.168 36.6666H31.7003C31.8848 32.1266 32.8225 27.6116 34.4501 24.4256C29.4237 26.4388 25.7948 31.0942 25.168 36.6666Z" fill="currentcolor"/>
    <path d="M45.5488 24.4256C47.1765 27.6117 48.1141 32.1266 48.2987 36.6666H54.831C54.2041 31.0942 50.5752 26.4388 45.5488 24.4256Z" fill="currentcolor"/>
    <path d="M39.9997 23.3333C38.0902 23.3333 35.4045 28.4969 35.0664 36.6666H44.9329C44.5948 28.4969 41.9094 23.3333 39.9997 23.3333Z" fill="currentcolor"/>
    <path d="M25.168 40C25.7948 45.5723 29.4237 50.2278 34.4501 52.2409C32.8225 49.0548 31.8848 44.54 31.7003 40H25.168Z" fill="currentcolor"/>
    <path d="M63.3333 10H59.9999V6.55177C59.9999 2.38975 56.0741 -0.863995 51.844 0.205378L16.2864 10.0385C12.7895 10.2402 10 13.12 10 16.6666V73.3332C10 77.0099 12.99 79.9998 16.6667 79.9998H63.3333C67.0101 79.9998 69.9999 77.0099 69.9999 73.3332V16.6666C69.9999 12.9899 67.0101 10 63.3333 10ZM52.7001 3.42647C54.6451 2.93006 56.6665 4.50553 56.6665 6.55162V9.99989H28.9318L52.7001 3.42647ZM48.3334 69.9999H30C29.0787 69.9999 28.3332 69.2545 28.3332 68.3332C28.3332 67.412 29.0787 66.6665 30 66.6665H48.3332C49.2545 66.6665 49.9999 67.412 49.9999 68.3332C49.9999 69.2545 49.2545 69.9999 48.3334 69.9999ZM54.9999 63.3348H23.3334C22.4122 63.3348 21.6667 62.5893 21.6667 61.6681C21.6667 60.7468 22.4122 60.0014 23.3334 60.0014H54.9999C55.9212 60.0014 56.6666 60.7468 56.6666 61.6681C56.6666 62.5893 55.9212 63.3348 54.9999 63.3348ZM39.9999 56.6665C29.8909 56.6665 21.6667 48.4423 21.6667 38.3333C21.6667 28.2242 29.8909 20 39.9999 20C50.109 20 58.3332 28.2242 58.3332 38.3333C58.3332 48.4423 50.109 56.6665 39.9999 56.6665Z" fill="currentcolor"/>
    <path d="M45.5488 52.2409C50.5752 50.2278 54.2043 45.5722 54.831 40H48.2987C48.1141 44.54 47.1765 49.0548 45.5488 52.2409Z" fill="currentcolor"/>
  </g>
  <defs>
    <clipPath id="clip0_654_8666">
      <rect width="80" height="80" fill="currentcolor"/>
    </clipPath>
  </defs>
</svg>
