<svg viewBox="0 0 80 80" fill="none" xmlns="http://www.w3.org/2000/svg">
  <path fill-rule="evenodd" clip-rule="evenodd" d="M19.9777 69.3745V75.2306C19.9777 77.8183 17.88 79.9163 15.292 79.9163H15.2919C12.7041 79.9163 10.6062 77.8183 10.6062 75.2304V69.3745H19.9777ZM69.4054 69.3745V75.2306C69.4054 77.8183 67.3075 79.9163 64.7196 79.9163C62.1316 79.9163 60.0337 77.8183 60.0337 75.2304V69.3745H69.4054ZM49.6961 57.1963L71.9228 34.9695C73.7529 33.1397 76.7197 33.1397 78.5496 34.9695C80.3796 36.7995 80.3796 39.7664 78.5496 41.5963L62.9496 57.1963H75.2362C77.8241 57.1963 79.9221 59.2942 79.9221 61.8821C79.9221 64.47 77.8241 66.568 75.2362 66.568H4.76385C2.17594 66.568 0.0780029 64.47 0.0780029 61.8821C0.0780029 59.2942 2.17594 57.1963 4.76385 57.1963H49.6961ZM37.511 29.4099H27.174C27.201 22.1845 29.4374 15.1047 33.6309 9.14448C36.9136 4.47875 40.0058 0.0837421 40.0058 0.0837421C40.0058 0.0837421 43.0971 4.48094 46.3779 9.14791C50.5677 15.1078 52.8014 22.186 52.827 29.4099H42.5006V54.3897H37.511V29.4099ZM36.4772 0.221286L31.3354 7.52951C26.8078 13.9646 24.3943 21.609 24.3673 29.4099H8.3534C6.80331 29.4099 5.54685 28.1533 5.54685 26.6034C5.54685 13.0975 18.9554 1.59548 36.4772 0.221286ZM43.5333 0.221286C61.0563 1.59548 74.4648 13.0975 74.4648 26.6034C74.4648 28.1533 73.2081 29.4099 71.6582 29.4099H55.6336C55.6083 21.6114 53.1975 13.9687 48.6739 7.53372L43.5333 0.221286Z" fill="currentcolor"/>
</svg>
