<svg viewBox="0 0 81 80" fill="none" xmlns="http://www.w3.org/2000/svg">
  <g clip-path="url(#clip0_654_8783)">
    <path d="M79.8827 10.0491L57.8898 -0.617734C56.8307 -1.12742 55.5971 -1.12742 54.538 -0.617734L32.5445 10.0491C32.1737 10.2199 31.9338 10.5882 31.9277 10.9965V24.0923C32.0887 35.6101 37.5482 46.4112 46.7268 53.371L55.2006 60.0801C55.7963 60.5432 56.6304 60.5432 57.2263 60.0801L65.6973 53.3724C74.8774 46.4129 80.338 35.6112 80.4991 24.0923V10.9965C80.4935 10.588 80.2537 10.2196 79.8827 10.0491ZM56.2135 38.9985C48.3627 38.967 42.0212 32.5827 42.0421 24.732C42.063 16.8812 48.4388 10.531 56.2896 10.5415C64.1404 10.5521 70.4993 16.9193 70.4993 24.7701C70.4748 32.6404 64.084 39.0057 56.2135 38.9985Z" fill="currentcolor"/>
    <path d="M67.4698 57.6141L59.0003 64.3204C57.3628 65.5984 55.0658 65.5984 53.4283 64.3204L44.9566 57.6127C35.0895 50.113 28.158 38.4634 28 26.0707L27.3998 15.2843H4.78578C2.41984 15.287 0.502656 17.2041 0.5 19.5701V63.8559C0.502656 66.2218 2.41984 68.139 4.78578 68.1416H76.2144C78.5803 68.139 80.4975 66.2218 80.5002 63.8559V40.5015C77.7136 47.2388 73.2233 53.1359 67.4698 57.6141Z" fill="currentcolor"/>
    <path d="M56.3478 14.3987C50.5557 14.4277 45.8811 19.1416 45.9005 24.9337C45.9198 30.7258 50.6258 35.4083 56.418 35.3986C62.2102 35.389 66.9006 30.6908 66.9006 24.8987C66.8792 19.0879 62.1586 14.391 56.3478 14.3987ZM61.5978 23.1402L55.1221 29.6159C54.8749 29.8633 54.5393 30.0024 54.1896 30.0024C53.8397 30.0024 53.5042 29.8633 53.257 29.6159L51.098 27.457C50.5829 26.9419 50.5829 26.1068 51.098 25.5916C51.6131 25.0764 52.4481 25.0765 52.9633 25.5916L54.1897 26.818L59.7328 21.275C60.2486 20.7643 61.08 20.7664 61.5934 21.2796C62.1064 21.793 62.1084 22.6244 61.5978 23.1402Z" fill="currentcolor"/>
    <path d="M6.16201 51.6236C5.27958 51.8554 4.66311 52.4505 4.52797 53.201C4.39777 53.9241 4.8726 54.7312 5.64522 55.1002C6.22087 55.3752 5.67084 55.3615 15.6431 55.3481L24.7773 55.3358L25.1588 55.1869C26.946 54.4889 26.9474 52.429 25.161 51.7314L24.7773 51.5816L15.5835 51.5727C8.26741 51.5656 6.34321 51.576 6.16201 51.6236ZM6.25338 59.7979C5.33503 60.0014 4.69869 60.5796 4.5315 61.3622C4.31796 62.3613 5.21485 63.3583 6.47511 63.5227C6.94653 63.5842 19.0474 63.5878 19.561 63.5266C20.5641 63.4071 21.3446 62.7607 21.5161 61.9074C21.7074 60.9558 20.8722 59.9789 19.6937 59.7756C19.4826 59.7392 17.4671 59.7245 12.9763 59.7267C7.55747 59.7293 6.5128 59.7403 6.25338 59.7979Z" fill="currentcolor"/>
    <path d="M11.9908 27.6829C11.6976 27.7567 11.1515 27.9665 10.7771 28.149C7.21899 29.8839 6.12248 34.3895 8.47333 37.6143L8.78426 38.0407L8.15465 38.5089C5.92064 40.1701 4.51752 42.8193 4.501 45.4076C4.49491 46.366 4.50968 46.4515 4.74226 46.8039C4.89204 47.0308 5.14982 47.2565 5.39439 47.375C5.7966 47.5697 5.84025 47.5707 13.5251 47.5707C20.2693 47.5707 21.2946 47.5526 21.5912 47.4288C22.035 47.2433 22.2394 47.0512 22.4671 46.6049C22.6322 46.2814 22.6481 46.1207 22.6044 45.2205C22.5246 43.5807 21.9327 41.9177 20.9314 40.5205C20.463 39.867 19.3643 38.7856 18.73 38.3538L18.291 38.0551L18.6222 37.6215C19.0777 37.025 19.5477 36.0167 19.7289 35.2472C19.933 34.3796 19.8666 32.7065 19.598 31.95C19.068 30.4577 17.9975 29.0969 16.7979 28.3906C15.7955 27.8003 15.0621 27.606 13.7237 27.5757C12.8975 27.557 12.3579 27.5904 11.9908 27.6829ZM14.837 31.259C15.3927 31.5427 15.9311 32.1116 16.2016 32.7005C16.49 33.3286 16.4754 34.4389 16.1705 35.0613C15.0786 37.2911 11.9755 37.2662 10.9225 35.019C10.6109 34.3542 10.591 33.3401 10.877 32.707C11.2165 31.9555 11.8408 31.3833 12.6515 31.0801C13.1836 30.881 14.2716 30.9701 14.837 31.259ZM15.251 40.445C16.4565 40.8713 17.3295 41.4788 17.98 42.3441C18.3973 42.8993 18.7605 43.5422 18.8863 43.9483L18.9507 44.1559H13.5453C10.5724 44.1559 8.14007 44.1291 8.14007 44.0964C8.14007 44.0636 8.29142 43.721 8.47638 43.335C8.73498 42.7952 8.98546 42.4618 9.5608 41.8913C10.8267 40.6364 12.0437 40.1544 13.7699 40.2246C14.4085 40.2506 14.9135 40.3257 15.251 40.445Z" fill="currentcolor"/>
  </g>
  <defs>
    <clipPath id="clip0_654_8783">
      <rect width="80" height="80" fill="currentcolor" transform="translate(0.5)"/>
    </clipPath>
  </defs>
</svg>
