<svg viewBox="0 0 61 60" fill="none" xmlns="http://www.w3.org/2000/svg">
  <g clip-path="url(#clip0_1339_33277)">
  <path d="M30.5586 46.4664C33.7946 46.4664 36.418 43.8431 36.418 40.6072C36.418 37.3713 33.7946 34.7481 30.5586 34.7481C27.3226 34.7481 24.6992 37.3713 24.6992 40.6072C24.6992 43.8431 27.3226 46.4664 30.5586 46.4664Z" fill="currentcolor"/>
  <path d="M58.7422 0H2.25781C1.28703 0 0.5 0.786914 0.5 1.7577V43.9431C0.5 44.9139 1.28703 45.7008 2.25781 45.7008H22.6944C18.6648 39.5014 23.1348 31.2326 30.5586 31.2326C37.9824 31.2326 42.4524 39.5013 38.4228 45.7008H58.7422C59.713 45.7008 60.5 44.9139 60.5 43.9431V1.7577C60.5 0.786914 59.713 0 58.7422 0V0ZM23.4688 7.14809H37.5312C38.502 7.14809 39.2891 7.935 39.2891 8.90578C39.2891 9.87656 38.502 10.6635 37.5312 10.6635H23.4688C22.498 10.6635 21.7109 9.87656 21.7109 8.90578C21.7109 7.935 22.498 7.14809 23.4688 7.14809ZM48.0781 28.2408H12.9219C11.9511 28.2408 11.1641 27.4539 11.1641 26.4831C11.1641 25.5123 11.9511 24.7254 12.9219 24.7254H48.0781C49.0489 24.7254 49.8359 25.5123 49.8359 26.4831C49.8359 27.4539 49.0489 28.2408 48.0781 28.2408ZM48.0781 21.2099H12.9219C11.9511 21.2099 11.1641 20.423 11.1641 19.4522C11.1641 18.4814 11.9511 17.6945 12.9219 17.6945H48.0781C49.0489 17.6945 49.8359 18.4814 49.8359 19.4522C49.8359 20.423 49.0489 21.2099 48.0781 21.2099Z" fill="currentcolor"/>
  <path d="M23.5566 46.8318V58.2394C23.5566 59.6331 25.1129 60.4819 26.2857 59.7043L30.6173 56.8328L34.9489 59.7043C36.1038 60.47 37.678 59.6495 37.678 58.2394V46.6965C33.9747 51.0194 27.3448 51.0881 23.5566 46.8318Z" fill="currentcolor"/>
  </g>
  <defs>
    <clipPath id="clip0_1339_33277">
      <rect width="60" height="60" fill="currentcolor" transform="translate(0.5)"/>
    </clipPath>
  </defs>
</svg>
