<svg viewBox="0 0 60 60" fill="none" xmlns="http://www.w3.org/2000/svg">
  <g clip-path="url(#clip0_2189_8072)">
    <path d="M39.5388 12.8745C39.5388 11.6551 39.0629 10.5072 38.2005 9.64476L33.894 5.33835C33.0436 4.48777 31.8363 4 30.6347 4H30.373V13.1362H39.5389L39.5388 12.8745Z" fill="currentcolor"/>
    <path fill-rule="evenodd" clip-rule="evenodd" d="M18.556 55.9749C18.2023 55.357 18 54.6417 18 53.8798V52.8476C18 48.6839 21.383 45.3009 25.5467 45.3009H29.3374L27.7523 44.8518L27.7277 44.8443C25.5098 44.1748 24.2425 41.8576 24.8725 39.6316C25.2275 38.3775 26.1115 37.422 27.2096 36.9282C27.5798 34.269 28.3219 31.6838 29.4148 29.2348C28.7501 28.2346 28.5188 26.9613 28.8662 25.7335C29.5041 23.4796 31.839 22.1897 34.0796 22.812L34.0928 22.8157L39.5815 24.3946V22.7776V16.1816H28.8819C28.0403 16.1816 27.4087 15.5006 27.4087 14.6589V4H4.56811C2.04915 4 0 6.04915 0 8.56811V51.4068C0 53.9258 2.04915 55.9749 4.56811 55.9749H18.556ZM22.7911 31.4087H7.61352C6.77187 31.4087 6.09081 32.0897 6.09081 32.9314C6.09081 33.773 6.77187 34.4541 7.61352 34.4541H22.7911C23.6328 34.4541 24.3138 33.773 24.3138 32.9314C24.3138 32.0897 23.6328 31.4087 22.7911 31.4087ZM7.61352 25.3178C6.77187 25.3178 6.09081 25.9989 6.09081 26.8406C6.09081 27.6822 6.77187 28.3633 7.61352 28.3633H22.7911C23.6328 28.3633 24.3138 27.6822 24.3138 26.8406C24.3138 25.9989 23.6328 25.3178 22.7911 25.3178H7.61352ZM7.61352 37.4995C6.77187 37.4995 6.09081 38.1805 6.09081 39.0222C6.09081 39.8638 6.77187 40.5449 7.61352 40.5449H22.7911C23.6328 40.5449 24.3138 39.8638 24.3138 39.0222C24.3138 38.1805 23.6328 37.4995 22.7911 37.4995H7.61352ZM6.09081 20.7497C6.09081 21.5914 6.77187 22.2724 7.61352 22.2724H28.8819C29.7236 22.2724 30.4046 21.5914 30.4046 20.7497C30.4046 19.9081 29.7236 19.227 28.8819 19.227H7.61352C6.77187 19.227 6.09081 19.9081 6.09081 20.7497Z" fill="currentcolor"/>
    <path d="M42.3817 47.6448H25.5467C23.0399 47.6448 21 49.6846 21 52.1915V53.2237C21 53.8995 21.553 54.4525 22.2288 54.4525H45.6996C46.3877 54.4525 46.9284 53.8995 46.9284 53.2237V52.1915C46.9284 49.6846 44.8885 47.6448 42.3817 47.6448Z" fill="currentcolor"/>
    <path d="M57.6559 37.3348L44.2493 33.9063C44.4091 32.8987 44.5197 31.8788 44.5688 30.8465L45.2447 31.0432C45.3553 31.08 45.4659 31.0923 45.5765 31.0923C46.1171 31.0923 46.6087 30.736 46.7561 30.2076C46.9527 29.5563 46.5718 28.8681 45.9205 28.6838L33.2758 25.0464C32.6123 24.8621 31.9364 25.2431 31.7521 25.8943C31.5677 26.5456 31.9364 27.2215 32.5877 27.4058L33.2635 27.6024C31.2605 31.1415 30.13 35.0737 29.958 39.1412L29.2821 38.9446C28.6308 38.7602 27.9427 39.1412 27.7584 39.7925C27.574 40.4437 27.9427 41.1196 28.594 41.3162L30.8059 41.9429H30.8182L39.0391 44.3146L41.251 44.9413C41.3616 44.9781 41.4721 44.9904 41.5827 44.9904C42.1234 44.9904 42.615 44.6464 42.7624 44.1057C42.959 43.4544 42.5781 42.7662 41.9268 42.5819L41.251 42.3853C41.7548 41.5005 42.2094 40.5789 42.6027 39.6327L55.8987 43.8722C56.2059 43.9582 56.5254 44.0074 56.8326 44.0074C57.3978 44.0074 57.9508 43.8599 58.4669 43.5773C59.2534 43.1472 59.8309 42.4222 60.0767 41.5497C60.3348 40.6649 60.2119 39.7433 59.7572 38.9446C59.3025 38.1335 58.5652 37.5683 57.6559 37.3348V37.3348Z" fill="currentcolor"/>
  </g>
  <defs>
    <clipPath id="clip0_2189_8072">
      <rect width="60" height="60" fill="currentcolor"/>
    </clipPath>
  </defs>
</svg>
