<svg viewBox="0 0 80 80" fill="none" xmlns="http://www.w3.org/2000/svg">
  <path d="M36.7227 6.76065V37.3768C36.7227 37.739 37.0162 38.0325 37.3784 38.0325H79.3354C79.6976 38.0325 79.9911 37.739 79.9911 37.3768V0.655737C79.9911 0.465311 79.9085 0.284328 79.7645 0.159738C79.6208 0.0351474 79.4301 -0.0204592 79.241 0.0068195L37.284 6.11174C36.9616 6.15869 36.7227 6.43515 36.7227 6.76065Z" fill="currentcolor"/>
  <path d="M32.1307 73.429C32.2884 73.429 32.4418 73.3723 32.5619 73.2674C32.7046 73.1428 32.7864 72.9626 32.7864 72.7732V42.623C32.7864 42.2607 32.4929 41.9672 32.1307 41.9672H0.679175C0.505274 41.9672 0.338454 42.0362 0.215437 42.1592C0.0924211 42.2822 0.0234375 42.4491 0.0234375 42.623L0.0250113 68.463C0.0250113 68.7908 0.26711 69.0681 0.591569 69.1127L32.0415 73.4232C32.0712 73.4269 32.1011 73.429 32.1307 73.429Z" fill="currentcolor"/>
  <path d="M0.684328 38.0325H32.1314C32.4936 38.0325 32.7871 37.739 32.7871 37.3768V7.52288C32.7871 7.33351 32.7053 7.15357 32.5629 7.02898C32.4205 6.90439 32.2321 6.84721 32.0433 6.87318L0.567607 11.1475C0.242099 11.1919 -0.000262082 11.4696 2.12697e-07 11.798L0.0285904 37.3773C0.029115 37.7393 0.322623 38.0325 0.684328 38.0325Z" fill="currentcolor"/>
  <path d="M79.3354 80C79.4925 80 79.6454 79.9436 79.7655 79.8392C79.9088 79.7146 79.9911 79.5342 79.9911 79.3443L80.0016 42.623C80.0016 42.4491 79.9326 42.2822 79.8096 42.1592C79.6866 42.0362 79.5198 41.9672 79.3459 41.9672H37.3784C37.0162 41.9672 36.7227 42.2607 36.7227 42.623V73.4416C36.7227 73.7684 36.9634 74.0454 37.2869 74.091L79.2438 79.9937C79.2745 79.9979 79.305 80 79.3354 80Z" fill="currentcolor"/>
</svg>
