<svg viewBox="0 0 33 32" fill="none" xmlns="http://www.w3.org/2000/svg">
<path d="M4.348 2.29C4.118 2.684 3.898 3.007 4.128 3.464C4.254 3.715 4.646 3.971 4.735 4.017C5.06 4.178 5.365 4.332 5.145 4.332C4.471 4.332 5.269 4.947 4.277 4.249C4.111 4.133 3.777 3.819 3.747 3.349C3.714 2.813 4.199 2.377 4.348 2.289V2.29ZM4.926 5.75C4.922 5.428 4.926 5.071 5.092 4.839C5.11 4.814 5.127 4.787 5.147 4.755C5.245 4.599 5.364 4.409 5.713 4.158C4.887 3.862 4.426 3.469 4.362 3.088C4.191 2.073 6.922 1.141 6.886 1.052C6.851 0.962 5.736 1.087 5.431 1.177C3.886 1.537 2.791 2.511 2.791 3.737C2.791 4.767 4.021 5.427 4.926 5.75ZM14.703 4.872C14.11 5.468 13.22 5.385 13.22 5.385C14.244 4.98 13.49 4.655 13.732 4.711C13.976 4.763 14.163 4.683 14.892 4.439C15.62 4.196 15.297 4.277 14.702 4.872H14.703ZM15.323 3.736C14.945 3.791 14.866 3.817 14.541 3.817C14.438 3.817 14.226 3.877 13.991 3.959C13.799 4.216 13.59 4.443 13.361 4.636C13.05 4.901 12.702 5.102 12.323 5.24C12.428 5.324 12.565 5.417 12.737 5.52C13.356 5.9 13.948 6.062 14.973 5.223C15.997 4.385 16.32 3.736 16.159 3.628C15.997 3.521 15.701 3.683 15.323 3.736ZM11.452 1.201C9.589 1.778 7.882 2.7 6.389 3.885C6.166 3.895 5.911 3.856 5.693 3.805C7.205 2.53 8.95 1.522 10.863 0.87C11.063 0.957 11.268 1.077 11.452 1.2V1.201ZM18.271 9.326C17.625 13.224 12.155 14.811 11.025 16.18C10.284 15.71 14.587 11.755 15.235 10.368C16.143 8.419 15.127 7.108 16.245 6.47C17.187 5.933 18.678 6.863 18.271 9.326ZM9.2 10.561C8.519 9.838 8.862 9.251 8.647 9.071C8.393 8.859 8.302 8.537 8.826 8.62C9.343 8.702 9.707 8.604 10.031 8.386C10.537 8.045 10.408 7.107 11.378 6.962C12.348 6.818 13.082 7.086 12.885 8.291C12.627 9.869 10.135 11.556 9.199 10.561H9.2ZM8.799 7.135C9.39 6.653 9.805 6.668 9.975 6.881C10.279 7.261 9.953 7.955 9.335 8.123C9.164 8.169 8.381 8.269 8.222 8.077C8.062 7.884 8.264 7.57 8.799 7.135ZM8.054 9.756C7.82 9.883 7.372 9.414 7.066 9.233C6.76 9.053 6.49 9.144 6.041 9.199C5.592 9.252 4.95 9.209 4.891 9.035C4.784 8.711 5.161 8.621 5.681 8.531C6.203 8.441 6.527 8.711 6.742 8.711C6.957 8.711 7.194 8.557 7.749 8.873C8.252 9.162 8.287 9.63 8.054 9.756ZM6.993 12.306C6.563 12.631 5.673 12.406 5.673 12.092C5.673 11.765 6.086 11.956 6.373 11.956C6.661 11.956 7.021 11.73 6.859 11.28C6.783 11.07 6.787 10.63 7.129 11.01C7.469 11.387 7.531 11.902 6.993 12.307V12.306ZM5.304 10.964C5.184 11.174 4.819 11.559 4.496 11.486C4.171 11.415 3.903 11.486 3.688 11.613C3.472 11.739 2.663 12.099 2.628 11.685C2.59 11.252 2.878 10.604 3.472 10.369C4.065 10.135 4.639 9.991 4.945 10.063C5.251 10.135 5.663 10.333 5.305 10.963L5.304 10.964ZM5.825 6.512C6.221 6.368 6.131 6.692 5.915 6.98C5.7 7.269 5.808 7.757 5.682 7.9C5.557 8.045 5.018 7.912 4.855 7.683C4.585 7.305 5.43 6.656 5.825 6.512ZM6.005 4.782C6.382 4.494 7.443 4.151 7.659 4.062C7.874 3.971 8.557 3.61 8.79 3.826C9.024 4.043 8.52 4.276 8.377 4.584C8.233 4.89 8.107 5.736 8.143 6.189C8.179 6.638 7.55 6.007 7.407 5.647C7.262 5.287 7.317 5.177 6.885 5.304C6.455 5.43 5.628 5.07 6.005 4.782ZM15.298 5.414C14.076 6.266 13.22 6.149 12.51 5.734C12.344 5.64 12.207 5.554 12.095 5.473C11.977 5.505 11.858 5.531 11.735 5.553C11.562 5.583 11.398 5.598 11.245 5.598C10.303 5.598 9.915 5.008 9.869 4.505C9.799 3.728 10.175 3.425 10.687 3.12C9.794 2.922 8.192 3.254 7.047 3.773C5.574 4.439 5.519 4.763 5.341 5.015C5.161 5.269 5.268 5.953 5.215 6.135C5.161 6.315 4.927 6.602 4.639 6.962C4.352 7.324 4.28 7.702 4.297 7.918C4.317 8.134 4.532 8.423 4.639 8.513C4.532 8.711 4.154 9.703 4.083 9.774C3.92 9.774 3.759 10.009 3.688 10.08C3.453 10.116 2.358 10.567 2.43 11.72C2.5 12.854 3.274 13.11 3.795 13.18C4.245 13.793 5.125 13.92 6.185 13.902C6.707 13.892 7.237 13.727 7.63 13.573C3.881 19.341 9.047 25.049 11.083 26.207C10.626 25.474 6.214 19.644 15.141 14.855C22.303 11.013 19.634 5.055 16.64 4.23C16.438 4.546 15.955 4.957 15.298 5.414ZM23.148 22.541C23.125 22.145 23.632 22.191 23.744 22.259C23.856 22.326 23.924 22.507 23.788 22.507C23.654 22.507 23.418 22.687 23.71 22.879C23.787 22.929 23.17 22.934 23.148 22.541ZM25.888 27.963C26.091 28.035 26.29 28.09 26.477 28.12C23.668 30.532 20.024 32 16.037 32C7.192 32 0 24.823 0 16C0 12.13 1.391 8.585 3.694 5.817C3.864 5.893 4.043 5.953 4.204 5.997C1.904 8.697 0.51 12.186 0.51 16C0.51 24.543 7.474 31.49 16.036 31.49C19.773 31.49 23.206 30.166 25.887 27.963H25.888ZM23.691 17.186C23.691 17.254 23.577 17.206 23.562 17.139C23.55 17.072 23.53 16.943 23.53 16.943C23.53 16.943 23.799 16.626 23.867 16.626C23.905 16.626 23.967 16.801 23.967 16.896C23.967 16.992 23.927 17.044 23.773 17.037C23.617 17.031 23.691 17.119 23.691 17.186ZM28.934 19.182C28.88 19.281 28.738 19.11 28.682 19.138C28.628 19.165 28.512 19.128 28.512 19.048C28.512 18.967 28.628 18.904 28.772 18.913C28.915 18.922 28.988 19.083 28.934 19.182ZM29.004 20.129C28.87 20.11 28.764 20.11 28.593 20.138C28.421 20.164 28.467 20.138 28.26 20.129C28.053 20.119 27.93 19.886 27.973 19.786C28.07 19.561 28.27 19.578 28.403 19.616C28.539 19.651 28.763 19.841 28.843 19.896C28.924 19.949 28.979 19.931 29.203 20.002C29.428 20.074 29.14 20.148 29.005 20.129H29.004ZM29.391 19.049C29.518 19.004 29.608 19.165 29.608 19.228C29.608 19.292 29.51 19.272 29.472 19.246C29.338 19.146 29.392 19.048 29.392 19.048L29.391 19.049ZM28.152 18.876C27.99 19.031 27.206 19.348 27.192 19.741C27.178 20.133 27.869 20.634 28.692 20.498C29.512 20.363 29.779 19.801 29.769 19.553C29.756 19.187 29.311 18.363 28.557 18.078C28.571 18.268 28.364 18.673 28.151 18.876H28.152ZM27.389 25.594C27.582 25.77 27.659 26.319 27.596 26.509C27.54 26.671 27.315 26.759 27.218 26.681C27.01 26.509 26.753 26.114 26.832 26.082C27.132 25.959 27.196 25.418 27.389 25.594ZM26.689 21.354C26.651 21.129 26.669 20.66 26.957 20.833C27.245 21.003 27.451 20.885 27.433 20.975C27.416 21.066 27.336 21.102 27.245 21.165C27.175 21.215 26.93 21.462 26.885 21.57C26.84 21.68 26.723 21.58 26.688 21.355L26.689 21.354ZM25.592 19.417C25.379 18.255 28.134 18.435 27.432 18.813C27.432 18.813 26.912 19.073 26.813 19.363C26.547 20.133 25.705 20.037 25.592 19.417ZM24.826 25.067C24.34 25.23 23.613 25.27 23.207 25.109C22.523 24.834 23.773 24.825 24.542 24.095C24.983 23.675 25.109 22.919 25.836 23.405C26.509 23.855 25.31 24.905 24.826 25.067ZM22.519 23.012C22.396 22.792 22.446 22.489 22.599 22.337C22.758 22.179 23.051 22.003 23.669 21.959C24.188 21.923 24.456 21.745 24.573 21.689C24.691 21.634 24.817 22.873 23.731 23.183C23.143 23.35 22.649 23.243 22.519 23.013V23.012ZM21.945 18.517C21.973 18.971 21.469 19.287 21.236 19.121C21.003 18.953 21.098 17.945 21.295 17.241C21.885 15.124 23.688 14.339 24.188 14.408C24.154 14.676 22.915 14.951 22.423 15.973C21.791 17.285 21.917 18.062 21.945 18.517ZM19.645 20.907C17.909 23.119 14.447 19.8 18.639 17.047C19.942 16.192 20.799 14.992 21.219 14.4C21.354 15.182 20.062 16.886 19.754 17.83C19.209 19.494 20.468 19.859 19.646 20.907H19.645ZM14.261 27.365C12.698 26.375 13.382 24.239 13.545 25.008C13.903 26.69 16.04 26.565 16.889 27.007C17.645 27.399 16.069 28.51 14.261 27.365ZM25.551 14.699C25.996 14.821 25.767 15.173 25.618 15.092C25.471 15.01 25.025 15.078 24.675 15.279C24.325 15.485 23.691 16.146 23.557 16.335C23.421 16.523 23.327 16.889 23.355 17.159C23.247 17.024 23.213 16.705 23.287 16.416C23.395 15.998 23.893 15.376 24.46 14.983C25.025 14.591 25.552 14.699 25.552 14.699H25.551ZM24.541 18.093C24.893 17.989 25.295 17.728 25.121 18.025C24.944 18.323 24.502 18.713 23.881 18.661C23.354 18.617 22.708 18.173 22.734 17.714C22.758 17.294 23.044 17.268 23.179 17.375C23.314 17.484 23.649 18.355 24.541 18.093ZM27.101 20.299C27.218 20.409 27.245 20.588 27.64 20.66C28.233 20.769 27.981 20.804 27.847 20.833C27.712 20.858 27.272 20.84 27.047 20.743C26.849 20.654 26.647 20.407 26.688 20.319C26.778 20.119 26.984 20.192 27.101 20.299ZM27.586 24.106C27.816 23.328 27.236 22.296 27.155 22.16C27.074 22.026 26.979 21.932 26.994 21.768C27.006 21.608 27.573 21.026 27.708 20.903C28.085 20.971 28.295 20.833 28.385 20.715C28.699 20.705 28.88 20.579 28.88 20.579C28.896 20.572 28.914 20.561 28.93 20.551C28.79 20.601 28.453 20.652 28.412 20.652C27.94 20.652 27.472 20.497 27.198 20.214C27.055 20.066 26.985 19.905 26.988 19.75C27.003 19.12 27.594 18.947 27.891 18.687C28.202 18.417 28.387 17.852 28.387 17.852C28.387 17.852 28.822 17.781 29.374 18.621C29.374 18.133 29.112 17.873 28.894 17.687C28.624 17.457 28.125 17.565 28.125 17.565C27.384 16.876 26.791 17.024 26.535 17.037C26.211 17.055 25.821 17.268 25.416 17.375L25.615 17.025C25.584 17.033 25.548 17.039 25.503 17.039C25.489 17.039 25.473 17.033 25.458 17.027C25.463 17.029 25.463 17.033 25.467 17.034C25.397 17.13 25.333 17.207 25.281 17.254C24.998 17.51 24.985 17.512 24.595 17.632C24.205 17.753 23.516 17.457 23.475 17.037C23.435 16.62 23.826 16.281 24.46 15.673C25.093 15.064 25.66 15.254 25.862 15.335C25.862 15.335 26.193 15.52 26.189 15.719C26.204 15.72 26.232 15.729 26.244 15.732C26.26 15.737 26.278 15.744 26.296 15.752C26.426 14.935 25.902 14.476 25.552 14.307C25.188 14.131 24.81 14.564 24.823 14.469C24.837 14.375 25.2 12.726 24.608 10.859C23.745 8.414 21.806 6.401 18.808 5.197C20.316 6.125 24.592 12.484 16.036 16.973C8.183 21.093 10.66 26.098 13.178 27.624C7.941 26.338 4.057 21.634 4.057 16.024C4.057 15.397 4.105 14.782 4.198 14.181C3.959 14.139 3.572 13.602 3.308 13.673C3.166 14.435 3.093 15.221 3.093 16.024C3.093 23.154 8.899 28.934 16.061 28.934C17.106 28.934 18.122 28.81 19.095 28.578C18.819 28.303 18.642 28.014 18.48 27.744L18.435 27.657C17.718 26.177 18.795 24.122 18.795 24.122C18.795 24.122 20.983 25.734 21.998 25.662C22.108 25.807 22.698 26.759 22.421 27.769C23.344 27.525 24.403 27.189 25.129 26.78C25.415 26.999 26.003 27.347 26.265 27.473C27.02 27.838 27.519 27.69 27.722 27.447C27.895 27.237 28.097 25.849 27.186 24.971C27.364 24.691 27.498 24.403 27.586 24.106ZM20.781 27.987C19.743 28.042 19.554 27.217 19.46 26.866C19.365 26.514 19.756 25.92 19.756 25.92C19.823 25.648 20.322 25.946 20.524 26.067C20.726 26.189 21.481 26.325 21.454 26.446C21.427 26.568 20.269 26.541 20.242 26.689C20.214 26.839 21.103 26.932 21.373 26.919C21.643 26.905 21.817 27.933 20.781 27.987ZM21.858 25.879C20.74 25.932 19.028 24.919 19.028 24.919C18.988 24.986 18.247 26.392 18.718 27.542C19.19 28.689 20.511 28.906 21.131 28.702C21.821 28.479 22.721 27.568 21.858 25.879ZM8.827 7.37C8.827 7.24 9.24 7.042 9.403 7.386C9.546 7.694 9.313 7.874 9.151 7.874C9.041 7.874 8.81 7.784 8.846 7.657C8.867 7.579 9.128 7.712 9.096 7.495C9.079 7.37 8.826 7.46 8.826 7.37H8.827ZM32.075 16C32.075 19.922 30.648 23.514 28.292 26.3C28.265 26.05 28.232 25.807 28.2 25.6C30.3 22.958 31.563 19.626 31.563 16C31.563 7.459 24.598 0.51 16.038 0.51C15.536 0.51 15.039 0.539 14.548 0.586C14.371 0.446 14.132 0.296 13.896 0.159C14.597 0.066 15.31 0 16.037 0C24.88 0 32.074 7.176 32.074 16H32.075ZM13.241 2.334C13.138 2.953 12.514 3.428 12.209 3.656C10.684 4.801 11.606 3.605 10.984 3.93C10.785 3.795 11.994 2.997 12.034 2.917C12.314 3.035 13.426 1.894 12.212 0.82C12.372 0.968 13.381 1.503 13.242 2.334H13.241ZM12.421 1.501C12.574 1.985 12.205 2.565 11.379 3.071C10.553 3.573 10.089 3.806 10.175 4.474C10.212 4.759 10.427 5.468 11.684 5.251C12.943 5.034 13.768 4.205 14.29 3.178C14.812 2.151 14.85 0.572 12.443 0.138C10.483 -0.185 9.067 0.515 9.067 0.586C9.103 0.731 12.021 0.239 12.421 1.501ZM25.961 16.451L25.901 16.546C25.881 16.51 25.86 16.479 25.834 16.454L25.856 16.417C25.887 16.432 25.925 16.444 25.96 16.451H25.961ZM28.04 16.846C28.043 16.796 28.068 16.248 28.068 16.024C28.068 9.639 23.038 4.424 16.707 4.091C16.852 3.873 16.987 3.504 17.09 3.155C23.772 3.676 29.031 9.239 29.031 16.025C29.031 16.346 28.985 17.129 28.978 17.202C28.763 16.989 28.338 17.144 28.04 16.846ZM25.78 16.694C25.847 16.734 25.922 16.889 25.916 16.917L25.697 16.767C25.651 16.706 25.743 16.671 25.781 16.694H25.78ZM25.504 16.964C25.619 16.964 25.672 16.91 25.761 16.91C25.849 16.91 26.031 17.104 25.949 16.876C25.869 16.646 25.794 16.376 25.646 16.564C25.614 16.607 25.391 16.964 25.504 16.964ZM24.488 16.419C24.436 16.414 24.223 16.386 24.223 16.386C24.155 16.353 24.222 16.278 24.265 16.281C24.343 16.287 24.479 16.391 24.488 16.419ZM24.366 16.125C24.306 16.105 24.171 16.2 24.056 16.281C23.941 16.361 23.983 16.538 23.983 16.538C23.983 16.538 24.115 16.498 24.19 16.484C24.298 16.464 24.548 16.531 24.575 16.471C24.629 16.376 24.421 16.144 24.365 16.125H24.366ZM26.659 16.295C26.765 16.38 26.847 16.564 26.828 16.582C26.758 16.527 26.481 16.292 26.481 16.292C26.418 16.206 26.599 16.249 26.659 16.295ZM26.94 16.741C27.028 16.694 26.799 16.322 26.711 16.186C26.623 16.051 26.34 15.836 26.226 15.808C26.091 15.774 25.886 16.061 25.869 16.112C25.754 16.456 26.031 16.348 26.395 16.429C26.758 16.509 26.852 16.787 26.94 16.741ZM25.567 15.598C25.525 15.592 25.444 15.485 25.444 15.485C25.451 15.45 25.472 15.436 25.525 15.395C25.579 15.355 25.627 15.442 25.653 15.429C25.68 15.415 25.714 15.403 25.794 15.429C25.875 15.456 25.882 15.504 25.909 15.504C25.935 15.504 25.976 15.504 26.023 15.517C26.071 15.531 26.07 15.565 26.105 15.638C26.14 15.716 26.035 15.711 26.023 15.732C26.01 15.761 25.976 15.782 25.943 15.732C25.909 15.687 25.863 15.632 25.863 15.632C25.863 15.632 25.808 15.68 25.774 15.659C25.741 15.639 25.688 15.585 25.667 15.571C25.646 15.557 25.606 15.605 25.567 15.598ZM25.236 15.741C25.391 15.821 25.567 16.131 25.553 16.186C25.451 16.132 25.041 15.889 25.041 15.889C24.933 15.767 25.149 15.695 25.236 15.741ZM24.77 15.969C24.858 15.964 25.074 16.027 25.175 16.079C25.27 16.125 25.639 16.376 25.672 16.362C25.707 16.348 25.68 15.976 25.412 15.687C25.089 15.339 24.865 15.511 24.784 15.565C24.703 15.618 24.582 15.787 24.582 15.862C24.582 15.944 24.682 15.976 24.77 15.969Z" fill="#E8540B"/>
</svg>
