<svg viewBox="0 0 60 60" fill="none" xmlns="http://www.w3.org/2000/svg">
  <g clip-path="url(#clip0_1339_33265)">
    <path fill-rule="evenodd" clip-rule="evenodd" d="M1.55961 9.03472H51.6751C52.5364 9.03472 53.2347 9.7813 53.2347 10.7023V50.7258C53.2347 51.6469 52.5364 52.3935 51.6751 52.3935H33.6468H26.1737H19.6918H1.55961C0.698289 52.3935 0 51.6469 0 50.7258V10.7023C0 9.7813 0.698289 9.03472 1.55961 9.03472ZM32.8558 15.8165H20.3789C19.5176 15.8165 18.8193 16.5631 18.8193 17.4841C18.8193 18.4051 19.5176 19.1517 20.3789 19.1517H32.8558C33.7171 19.1517 34.4154 18.4051 34.4154 17.4841C34.4154 16.5631 33.7171 15.8165 32.8558 15.8165ZM11.0212 35.8282H42.2134C43.0747 35.8282 43.773 35.0817 43.773 34.1606C43.773 33.2396 43.0747 32.493 42.2134 32.493H11.0212C10.1599 32.493 9.46163 33.2396 9.46163 34.1606C9.46163 35.0817 10.1599 35.8282 11.0212 35.8282ZM11.0212 29.1577H42.2134C43.0747 29.1577 43.773 28.4111 43.773 27.49C43.773 26.569 43.0747 25.8224 42.2134 25.8224H11.0212C10.1599 25.8224 9.46163 26.569 9.46163 27.49C9.46163 28.4111 10.1599 29.1577 11.0212 29.1577ZM20.5303 43.1898C19.4824 43.1898 18.6328 44.0393 18.6328 45.0873C18.6328 46.1353 19.4824 46.9848 20.5303 46.9848H32.7057C33.7537 46.9848 34.6032 46.1353 34.6032 45.0873C34.6032 44.0393 33.7537 43.1898 32.7057 43.1898H20.5303Z" fill="currentcolor"/>
    <path d="M41.8647 19.7115L44.305 21.6748C48.1938 24.8035 53.5126 24.7991 57.3961 21.6748L59.8364 19.7115V22.8435V32.6338C59.8364 34.9904 57.3195 36.8378 55.0653 35.458L41.8647 19.7115ZM41.8647 19.7115V22.8435V32.6338C41.8647 34.9831 44.3739 36.8404 46.6358 35.458C46.6359 35.458 46.636 35.4579 46.6361 35.4579L50.8505 32.8829L55.0635 35.457L41.8647 19.7115ZM50.1298 15.15L50.1298 15.1502C50.0882 15.2168 50.0475 15.2304 50.0319 15.2338C50.0218 15.2359 50.0134 15.2357 50.0059 15.2341C49.9994 15.2328 49.9862 15.2291 49.9662 15.2148L47.471 13.436C47.4325 13.4086 47.3854 13.3505 47.3669 13.2513C47.3484 13.1521 47.3677 13.0561 47.4128 12.9835C47.4542 12.9174 47.4948 12.9037 47.5103 12.9004C47.5203 12.8983 47.5286 12.8985 47.536 12.9C47.5424 12.9013 47.5559 12.905 47.5767 12.9198C47.5767 12.9198 47.5768 12.9198 47.5768 12.9199L48.6864 13.7109L49.9857 14.6371L50.83 13.2832C51.3793 12.4021 51.805 11.7149 52.1394 11.175C52.6235 10.3933 52.9166 9.92013 53.1175 9.61388C53.2045 9.48117 53.2579 9.40559 53.2875 9.36545C53.2898 9.364 53.2923 9.3625 53.2948 9.36095L53.2949 9.36098L53.3031 9.35585C53.3253 9.34213 53.3404 9.33571 53.3485 9.33287C53.3608 9.33798 53.3912 9.35366 53.4283 9.39583C53.4782 9.45268 53.5094 9.52435 53.517 9.59071C53.523 9.6439 53.5178 9.71573 53.4563 9.81443C51.8321 12.42 51.4813 12.9829 51.1304 13.5457C50.9067 13.9043 50.6831 14.2629 50.1298 15.15ZM50.8505 0.89344C44.8844 0.89344 40.2012 6.0506 40.2012 12.1771C40.2012 18.3036 44.8844 23.4607 50.8505 23.4607C56.8167 23.4607 61.4999 18.3036 61.4999 12.1771C61.4999 6.0506 56.8167 0.89344 50.8505 0.89344Z" fill="currentcolor" stroke="#0E0E12" stroke-width="3"/>
  </g>
  <defs>
    <clipPath id="clip0_1339_33265">
      <rect width="60" height="60" fill="currentcolor"/>
    </clipPath>
  </defs>
</svg>
