<svg viewBox="0 0 80 80" fill="none" xmlns="http://www.w3.org/2000/svg">
  <g clip-path="url(#clip0_661_7646)">
    <path d="M54.9973 0C50.7323 0.294998 45.7473 3.02498 42.8424 6.57996C40.1924 9.80494 38.0124 14.5949 38.8624 19.2499C43.5224 19.3949 48.3373 16.5999 51.1273 12.9849C53.7373 9.61994 55.7123 4.85997 54.9973 0Z" fill="currentcolor"/>
    <path d="M71.8498 26.8399C67.7548 21.7049 61.9998 18.7249 56.5649 18.7249C49.3899 18.7249 46.3549 22.1599 41.3699 22.1599C36.23 22.1599 32.325 18.7349 26.12 18.7349C20.0251 18.7349 13.5351 22.4599 9.42014 28.8298C3.63517 37.7998 4.62516 54.6647 14.0001 69.0296C17.3551 74.1696 21.8351 79.9496 27.695 79.9996C32.91 80.0496 34.38 76.6546 41.445 76.6196C48.5099 76.5796 49.8499 80.0446 55.0549 79.9896C60.9198 79.9446 65.6448 73.5396 68.9998 68.3996C71.4048 64.7147 72.2998 62.8597 74.1648 58.6997C60.5998 53.5347 58.4249 34.2448 71.8498 26.8399Z" fill="currentcolor"/>
  </g>
  <defs>
    <clipPath id="clip0_661_7646">
      <rect width="80" height="80" fill="currentcolor"/>
    </clipPath>
  </defs>
</svg>
