<svg viewBox="0 0 81 80" fill="none" xmlns="http://www.w3.org/2000/svg">
  <path d="M68.114 0H12.8848C11.5904 0 10.541 1.04937 10.541 2.34375V70.7524C10.541 71.3739 10.788 71.9702 11.2274 72.4097L18.1312 79.3134C19.0465 80.2288 20.5304 80.2288 21.4458 79.3134L26.6922 74.067L31.9383 79.3134C32.3778 79.753 32.9739 80 33.5955 80C34.2171 80 34.8133 79.7531 35.2528 79.3134L40.4991 74.067L45.7455 79.3134C46.185 79.753 46.7813 80 47.4027 80C48.0242 80 48.6205 79.7531 49.06 79.3134L54.3062 74.067L59.5525 79.3134C60.0103 79.7711 60.6098 80 61.2098 80C61.8095 80 62.4095 79.7711 62.867 79.3134L69.7707 72.4097C70.2103 71.9702 70.4573 71.3741 70.4573 70.7524V2.34375C70.4578 1.04937 69.4082 0 68.114 0ZM38.1552 17.6048V14.8959C38.1552 13.6015 39.2047 12.5522 40.4989 12.5522C41.7935 12.5522 42.8427 13.6015 42.8427 14.8959V17.5729H45.52C46.8142 17.5729 47.8638 18.6223 47.8638 19.9167C47.8638 21.2111 46.8142 22.2604 45.52 22.2604H38.8256C37.3496 22.2604 36.1486 23.4614 36.1486 24.9375C36.1486 26.4137 37.3496 27.6148 38.8256 27.6148H42.173C46.2338 27.6148 49.5377 30.9184 49.5377 34.9793C49.5377 38.8141 46.5908 41.9724 42.8427 42.3121V45.021C42.8427 46.3154 41.7935 47.3648 40.4989 47.3648C39.2047 47.3648 38.1552 46.3154 38.1552 45.021V42.3437H35.4782C34.1839 42.3437 33.1344 41.2943 33.1344 39.9999C33.1344 38.7056 34.1839 37.6562 35.4782 37.6562H42.173C43.6491 37.6562 44.8502 36.4552 44.8502 34.9792C44.8502 33.5031 43.6492 32.3021 42.173 32.3021H38.8256C34.7647 32.3021 31.4611 28.9982 31.4611 24.9373C31.4613 21.1026 34.4077 17.9447 38.1552 17.6048ZM53.0514 59.9166H27.9472C26.6529 59.9166 25.6035 58.8672 25.6035 57.5729C25.6035 56.2785 26.6529 55.2291 27.9472 55.2291H53.0514C54.3456 55.2291 55.3951 56.2785 55.3951 57.5729C55.3951 58.8672 54.3456 59.9166 53.0514 59.9166Z" fill="currentcolor"/>
</svg>
