<svg fill="none" viewBox="0 0 120 120" xmlns="http://www.w3.org/2000/svg">
<path d="M60 0C26.9175 0 0 26.9175 0 60C0 93.0825 26.9175 120 60 120C93.0825 120 120 93.0825 120 60C120 26.9175 93.0825 0 60 0ZM30 45C30 40.8675 33.3675 37.5 37.5 37.5C41.6325 37.5 45 40.8675 45 45C45 49.1325 41.6325 52.5 37.5 52.5C33.3675 52.5 30 49.1325 30 45ZM86.5125 91.29C85.7775 92.025 84.8175 92.385 83.8575 92.385C82.8975 92.385 81.9375 92.0175 81.2025 91.29C69.8625 79.95 50.1075 79.95 38.775 91.29C37.3125 92.7525 34.935 92.7525 33.4725 91.29C32.01 89.8275 32.01 87.45 33.4725 85.9875C40.5675 78.9075 49.98 75 60 75C70.02 75 79.4325 78.9075 86.5125 85.9875C87.975 87.45 87.975 89.8275 86.5125 91.29ZM82.5 52.5C78.3675 52.5 75 49.1325 75 45C75 40.8675 78.3675 37.5 82.5 37.5C86.6325 37.5 90 40.8675 90 45C90 49.1325 86.6325 52.5 82.5 52.5Z" fill="white"/>
</svg>
