<svg viewBox="0 0 60 61" fill="none" xmlns="http://www.w3.org/2000/svg">
  <path d="M33.8668 33.2702C33.2451 33.2702 32.7411 32.7661 32.7411 32.1445V27H27.2702V32.1445C27.2702 32.7661 26.7661 33.2702 26.1445 33.2702H21V38.7298H26.1445C26.7661 38.7298 27.2702 39.2339 27.2702 39.8555V45H32.7298V39.8555C32.7298 39.2339 33.2339 38.7298 33.8555 38.7298H39.0113V33.2702H33.8668Z" fill="currentcolor"/>
  <path d="M51.4815 14.3054H8.51852C4.59259 14.3054 0 16.54 0 22.8239V49.6511C0 55.935 4.59259 58.1696 8.51852 58.1696H51.4815C55.4074 58.1696 60 55.935 60 49.6511V22.8239C60 16.54 55.4198 14.3054 51.4815 14.3054ZM42.3457 39.5153C42.3457 40.5312 41.5221 41.3548 40.5062 41.3548H35.4691V46.3918C35.4691 47.4077 34.6455 48.2313 33.6296 48.2313H26.3704C25.3545 48.2313 24.5309 47.4077 24.5309 46.3918V41.3548H19.5062C18.4903 41.3616 17.6611 40.5435 17.6543 39.5276C17.6543 39.5235 17.6543 39.5193 17.6543 39.5153V32.2684C17.6543 31.2525 18.4779 30.4289 19.4938 30.4289H24.5309V25.3918C24.5309 24.3759 25.3545 23.5523 26.3704 23.5523H33.6173C34.6332 23.5523 35.4568 24.3759 35.4568 25.3918V30.4289H40.4938C41.5097 30.4221 42.3389 31.2401 42.3457 32.256C42.3457 32.2602 42.3457 32.2642 42.3457 32.2684V39.5153Z" fill="currentcolor"/>
  <path d="M37.9376 1.83626C37.8023 1.82855 37.6665 1.82855 37.531 1.83626H22.4693C20.4882 1.72407 18.7913 3.23889 18.6791 5.21975C18.6714 5.35525 18.6714 5.49089 18.6791 5.62639V11.1819H21.1483L21.1606 5.62639C21.1606 5.26836 21.1606 4.3054 22.4816 4.3054H37.531C38.852 4.3054 38.852 5.25602 38.852 5.62639V11.1819H41.3211V5.62639C41.4334 3.64537 39.9185 1.94861 37.9376 1.83626Z" fill="currentcolor"/>
</svg>
