<svg width="21" height="20" viewBox="0 0 21 20" fill="none" xmlns="http://www.w3.org/2000/svg">
<path d="M20.4502 8.93258H4.01478L13.8519 0.393258C14.0092 0.255618 13.9137 0 13.7058 0H11.2198C11.1103 0 11.0064 0.0393257 10.9249 0.10955L0.309728 9.32022C0.212505 9.4045 0.134533 9.50869 0.0810949 9.62573C0.0276564 9.74277 0 9.86993 0 9.9986C0 10.1273 0.0276564 10.2544 0.0810949 10.3715C0.134533 10.4885 0.212505 10.5927 0.309728 10.677L10.9867 19.9438C11.0288 19.9803 11.0794 20 11.1328 20H13.703C13.9109 20 14.0064 19.7416 13.8491 19.6067L4.01478 11.0674H20.4502C20.5738 11.0674 20.6749 10.9663 20.6749 10.8427V9.1573C20.6749 9.03371 20.5738 8.93258 20.4502 8.93258Z" fill="white" fill-opacity="0.8"/>
</svg>
