<svg viewBox="0 0 60 61" fill="none" xmlns="http://www.w3.org/2000/svg">
  <g clip-path="url(#clip0_728_3876)">
    <path d="M55 0.75H5C4.00544 0.75 3.05161 1.14509 2.34835 1.84835C1.64509 2.55161 1.25 3.50544 1.25 4.5V12H58.75V4.5C58.75 3.50544 58.3549 2.55161 57.6517 1.84835C56.9484 1.14509 55.9946 0.75 55 0.75ZM8.75 7C8.50277 7 8.2611 6.92669 8.05554 6.78934C7.84998 6.65199 7.68976 6.45676 7.59515 6.22835C7.50054 5.99995 7.47579 5.74861 7.52402 5.50614C7.57225 5.26366 7.6913 5.04093 7.86612 4.86612C8.04093 4.6913 8.26366 4.57225 8.50614 4.52402C8.74861 4.47579 8.99995 4.50054 9.22835 4.59515C9.45676 4.68976 9.65199 4.84998 9.78934 5.05554C9.92669 5.2611 10 5.50277 10 5.75C10 6.08152 9.8683 6.39946 9.63388 6.63388C9.39946 6.8683 9.08152 7 8.75 7ZM13.75 7C13.5028 7 13.2611 6.92669 13.0555 6.78934C12.85 6.65199 12.6898 6.45676 12.5952 6.22835C12.5005 5.99995 12.4758 5.74861 12.524 5.50614C12.5723 5.26366 12.6913 5.04093 12.8661 4.86612C13.0409 4.6913 13.2637 4.57225 13.5061 4.52402C13.7486 4.47579 13.9999 4.50054 14.2284 4.59515C14.4568 4.68976 14.652 4.84998 14.7893 5.05554C14.9267 5.2611 15 5.50277 15 5.75C15 6.08152 14.8683 6.39946 14.6339 6.63388C14.3995 6.8683 14.0815 7 13.75 7ZM18.75 7C18.5028 7 18.2611 6.92669 18.0555 6.78934C17.85 6.65199 17.6898 6.45676 17.5952 6.22835C17.5005 5.99995 17.4758 5.74861 17.524 5.50614C17.5723 5.26366 17.6913 5.04093 17.8661 4.86612C18.0409 4.6913 18.2637 4.57225 18.5061 4.52402C18.7486 4.47579 18.9999 4.50054 19.2284 4.59515C19.4568 4.68976 19.652 4.84998 19.7893 5.05554C19.9267 5.2611 20 5.50277 20 5.75C20 6.08152 19.8683 6.39946 19.6339 6.63388C19.3995 6.8683 19.0815 7 18.75 7Z" fill="currentcolor"/>
    <path d="M1.25 55.5C1.25 56.4946 1.64509 57.4484 2.34835 58.1516C3.05161 58.8549 4.00544 59.25 5 59.25H55C55.9946 59.25 56.9484 58.8549 57.6517 58.1516C58.3549 57.4484 58.75 56.4946 58.75 55.5V15.5H1.25V55.5ZM36.7194 30.2266C36.4604 30.0196 36.2942 29.7181 36.2575 29.3886C36.2207 29.0591 36.3164 28.7284 36.5234 28.4694C36.7305 28.2104 37.0319 28.0443 37.3615 28.0075C37.691 27.9708 38.0216 28.0665 38.2806 28.2735L44.5306 33.2735C44.6772 33.3906 44.7955 33.5392 44.8768 33.7082C44.9581 33.8773 45.0004 34.0625 45.0004 34.2501C45.0004 34.4377 44.9581 34.6228 44.8768 34.7919C44.7955 34.9609 44.6772 35.1095 44.5306 35.2266L38.2806 40.2266C38.0216 40.4337 37.691 40.5293 37.3615 40.4926C37.0319 40.4558 36.7305 40.2897 36.5234 40.0307C36.3164 39.7717 36.2207 39.4411 36.2575 39.1115C36.2942 38.782 36.4604 38.4805 36.7194 38.2735L41.7493 34.25L36.7194 30.2266ZM25.1319 41.191L32.6319 26.191C32.7801 25.8944 33.0402 25.6689 33.3547 25.5641C33.6693 25.4592 34.0126 25.4836 34.3091 25.6319C34.6057 25.7801 34.8312 26.0402 34.9361 26.3547C35.0409 26.6692 35.0165 27.0126 34.8683 27.3091L27.3683 42.3091C27.2948 42.456 27.1932 42.5869 27.0692 42.6945C26.9452 42.802 26.8012 42.8841 26.6454 42.9361C26.4897 42.988 26.3252 43.0087 26.1615 42.9971C25.9977 42.9854 25.8378 42.9417 25.691 42.8682C25.5442 42.7948 25.4132 42.6932 25.3056 42.5692C25.1981 42.4452 25.116 42.3012 25.0641 42.1454C25.0121 41.9897 24.9914 41.8252 25.003 41.6615C25.0147 41.4977 25.0585 41.3378 25.1319 41.191ZM15.4694 33.2735L21.7194 28.2735C21.9784 28.0665 22.309 27.9708 22.6386 28.0075C22.9681 28.0443 23.2695 28.2104 23.4766 28.4694C23.6836 28.7284 23.7793 29.0591 23.7425 29.3886C23.7058 29.7181 23.5396 30.0196 23.2806 30.2266L18.2508 34.25L23.2806 38.2735C23.5396 38.4805 23.7058 38.782 23.7425 39.1115C23.7793 39.4411 23.6836 39.7717 23.4766 40.0307C23.2695 40.2897 22.9681 40.4558 22.6386 40.4926C22.309 40.5293 21.9784 40.4337 21.7194 40.2266L15.4694 35.2266C15.3228 35.1095 15.2045 34.9609 15.1232 34.7919C15.0419 34.6228 14.9997 34.4377 14.9997 34.2501C14.9997 34.0625 15.0419 33.8773 15.1232 33.7082C15.2045 33.5392 15.3228 33.3906 15.4694 33.2735Z" fill="currentcolor"/>
  </g>
  <defs>
    <clipPath id="clip0_728_3876">
      <rect width="60" height="60" fill="currentcolor" transform="translate(0 0.5)"/>
    </clipPath>
  </defs>
</svg>
