<svg viewBox="0 0 60 60" fill="none" xmlns="http://www.w3.org/2000/svg">
  <path fill-rule="evenodd" clip-rule="evenodd" d="M37.3381 11.4314H1.66214C0.744197 11.4314 0 12.2271 0 13.2086V55.8634C0 56.845 0.744197 57.6407 1.66214 57.6407H20.9864H27.8945H35.8589H55.0724C55.9903 57.6407 56.7345 56.845 56.7345 55.8634V35.0557C56.0715 34.954 54.7302 34.4437 53.2705 33.7298L50.5212 32.3853L48.2389 33.6048C44.8212 35.4311 42.8363 35.4726 40.802 33.7608C40.4452 33.4605 40.1676 33.2012 39.9517 32.8773H11.7458C10.8279 32.8773 10.0837 32.0816 10.0837 31.1C10.0837 30.1184 10.8279 29.3228 11.7458 29.3228H39.2568C39.2082 28.0817 39.2006 26.4191 39.2006 24.1347C39.2006 17.1298 39.1899 16.9962 38.5292 15.6805C37.8429 14.3143 37.4541 12.8753 37.3381 11.4314ZM21.7187 18.659H35.0158C35.9338 18.659 36.678 19.4547 36.678 20.4363C36.678 21.4179 35.9338 22.2135 35.0158 22.2135H21.7187C20.8007 22.2135 20.0565 21.4179 20.0565 20.4363C20.0565 19.4547 20.8007 18.659 21.7187 18.659ZM44.9887 39.9864H11.7458C10.8279 39.9864 10.0837 39.1907 10.0837 38.2092C10.0837 37.2276 10.8279 36.4319 11.7458 36.4319H44.9887C45.9066 36.4319 46.6508 37.2276 46.6508 38.2092C46.6508 39.1907 45.9066 39.9864 44.9887 39.9864ZM19.8578 49.8542C19.8578 48.7373 20.7632 47.8319 21.8801 47.8319H34.8559C35.9728 47.8319 36.8782 48.7373 36.8782 49.8542C36.8782 50.971 35.9728 51.8764 34.8559 51.8764H21.8801C20.7632 51.8764 19.8578 50.971 19.8578 49.8542Z" fill="currentcolor"/>
  <path d="M50.2489 2C44.8726 2 40.498 6.0904 40.498 11.1174C40.498 16.1444 44.8726 20.2348 50.2489 20.2348C55.6252 20.2348 59.9998 16.1444 59.9998 11.1174C59.9998 6.0904 55.6252 2 50.2489 2ZM54.3831 9.65449C51.5486 13.6306 52.3523 12.5034 50.8373 14.6276C50.2931 15.3908 49.1914 15.5932 48.3785 15.0866L45.7192 13.4289C44.9048 12.9212 44.6854 11.8924 45.2283 11.1298C45.7713 10.3683 46.8716 10.1632 47.6871 10.6709L48.8705 11.4086C51.698 7.44341 51.546 7.55313 52.0218 7.2995C53.6366 6.42609 55.4208 8.19715 54.3831 9.65449ZM42.2709 21.0575V30.1811C42.2709 31.4512 43.7422 32.2517 44.9236 31.6202L50.2489 28.7752L55.5742 31.6202C56.7509 32.2508 58.2269 31.4547 58.2269 30.1811V21.0575C53.5035 24.3804 47.0011 24.3851 42.2709 21.0575Z" fill="currentcolor"/>
</svg>
