<svg viewBox="0 0 60 60" fill="none" xmlns="http://www.w3.org/2000/svg">
  <path d="M31.8517 20.6905C31.2524 20.5714 30.6335 20.5078 30 20.5078C24.7659 20.5078 20.5078 24.7659 20.5078 30C20.5078 35.2341 24.7659 39.4922 30 39.4922C35.2341 39.4922 39.4922 35.2341 39.4922 30C39.4922 29.3665 39.4286 28.7476 39.3095 28.1483L33.7289 33.7289C32.7328 34.725 31.4085 35.2734 30 35.2734C28.5915 35.2734 27.2672 34.725 26.2711 33.7289C25.275 32.7328 24.7266 31.4085 24.7266 30C24.7266 28.5915 25.275 27.2672 26.2711 26.2711L31.8517 20.6905Z" fill="currentcolor"/>
  <path d="M57.3152 17.6001L53.5332 21.3821C53.1546 21.7607 52.728 22.0747 52.2675 22.3183C53.1006 24.7275 53.5547 27.3116 53.5547 30C53.5547 42.9881 42.9881 53.5547 30 53.5547C17.0119 53.5547 6.44531 42.9881 6.44531 30C6.44531 17.0119 17.0119 6.44531 30 6.44531C32.6894 6.44531 35.2748 6.89987 37.6845 7.73346C37.9285 7.27249 38.2402 6.84402 38.6183 6.46637L42.3999 2.68478C38.6183 0.961304 34.4197 0 30 0C13.4578 0 0 13.4578 0 30C0 46.5422 13.4578 60 30 60C46.5422 60 60 46.5422 60 30C60 25.5803 59.0387 21.3817 57.3152 17.6001Z" fill="currentcolor"/>
  <path d="M37.4661 15.076L37.1457 11.2784C34.9251 10.4274 32.5163 9.96094 30 9.96094C18.9505 9.96094 9.96094 18.9505 9.96094 30C9.96094 41.0495 18.9505 50.0391 30 50.0391C41.0495 50.0391 50.0391 41.0495 50.0391 30C50.0391 27.4837 49.5726 25.0749 48.7216 22.8543L44.924 22.5339L42.1367 25.3207C42.6988 26.7737 43.0078 28.3511 43.0078 30C43.0078 37.1727 37.1727 43.0078 30 43.0078C22.8273 43.0078 16.9922 37.1727 16.9922 30C16.9922 22.8273 22.8273 16.9922 30 16.9922C31.6489 16.9922 33.2263 17.3012 34.6793 17.8633L37.4661 15.076Z" fill="currentcolor"/>
  <path d="M40.5949 10.3432L41.1067 16.4076L28.7572 28.7572C28.0705 29.4434 28.0705 30.5566 28.7572 31.2428C29.1 31.5862 29.55 31.7578 30 31.7578C30.45 31.7578 30.9 31.5862 31.2428 31.2428L43.5924 18.8933L49.6568 19.4046C49.7063 19.4087 49.7552 19.411 49.8047 19.411C50.2689 19.411 50.7166 19.227 51.0475 18.896L58.5049 11.4381C58.9888 10.9547 59.1481 10.2342 58.9133 9.59152C58.678 8.94882 58.0916 8.50113 57.41 8.44391L52.0111 7.98843L51.5561 2.59003C51.4984 1.90796 51.0507 1.32156 50.4085 1.08673C49.7658 0.85144 49.0453 1.0112 48.5614 1.4946L41.104 8.95248C40.7378 9.31869 40.5515 9.82727 40.5949 10.3432Z" fill="currentcolor"/>
</svg>
