<svg viewBox="0 0 60 60" fill="none" xmlns="http://www.w3.org/2000/svg">
  <g clip-path="url(#clip0_728_3925)">
    <path d="M58.2422 52.7344H1.75781C0.787031 52.7344 0 53.5214 0 54.4922V58.2422C0 59.213 0.787031 60 1.75781 60H58.2422C59.213 60 60 59.213 60 58.2422V54.4922C60 53.5214 59.213 52.7344 58.2422 52.7344Z" fill="currentcolor"/>
    <path d="M10.0781 49.2188H24.1406C26.7294 49.2188 28.8281 47.12 28.8281 44.5312V43.9453C28.8281 42.9745 28.0411 42.1875 27.0703 42.1875H7.14844C6.17766 42.1875 5.39062 42.9745 5.39062 43.9453V44.5312C5.39062 47.1202 7.48934 49.2188 10.0781 49.2188Z" fill="currentcolor"/>
    <path d="M35.8594 31.0547C39.0954 31.0547 41.7188 28.4314 41.7188 25.1953C41.7188 21.9593 39.0954 19.3359 35.8594 19.3359C32.6233 19.3359 30 21.9593 30 25.1953C30 28.4314 32.6233 31.0547 35.8594 31.0547Z" fill="currentcolor"/>
    <path d="M12.4639 33.6265L16.9524 37.3928C17.6961 38.0168 18.8048 37.9198 19.4288 37.1761L20.5588 35.8295L13.377 29.8034L12.2471 31.1498C11.6232 31.8936 11.7202 33.0025 12.4639 33.6265Z" fill="currentcolor"/>
    <path d="M45.0399 6.65403C45.6639 5.91035 45.5669 4.80164 44.8232 4.17762L40.3347 0.411331C39.591 -0.212692 38.4822 -0.115661 37.8582 0.628011L36.7283 1.97461L43.91 8.00075L45.0399 6.65403Z" fill="currentcolor"/>
    <path d="M15.637 27.1103L22.8187 33.1364C24.3061 34.3845 26.5236 34.1904 27.7717 32.7031L28.8528 31.4146C27.381 29.7585 26.4845 27.5801 26.4845 25.1953C26.4845 20.0259 30.6901 15.8203 35.8595 15.8203C37.6587 15.8203 39.3403 16.3308 40.7693 17.213L42.0837 15.6466C43.3317 14.1593 43.1378 11.9418 41.6503 10.6937L34.4687 4.66758C32.9814 3.41953 30.7638 3.61348 29.5158 5.10094L15.2037 22.1573C13.9556 23.6448 14.1497 25.8622 15.637 27.1103Z" fill="currentcolor"/>
    <path d="M45.2344 25.1953C45.2344 26.6278 44.9104 27.9856 44.3335 29.201C47.5871 30.3654 49.9219 33.478 49.9219 37.127C49.9219 40.5505 47.8769 43.6055 44.7102 44.909L34.2434 49.2188H51.1209C54.7545 46.3408 56.9532 41.9334 56.9532 37.127C56.9532 29.6953 51.678 23.4734 44.6754 22.0074C45.0367 23.003 45.2344 24.0764 45.2344 25.1953Z" fill="currentcolor"/>
  </g>
  <defs>
    <clipPath id="clip0_728_3925">
      <rect width="60" height="60" fill="currentcolor"/>
    </clipPath>
  </defs>
</svg>
