<svg viewBox="0 0 80 80" fill="none" xmlns="http://www.w3.org/2000/svg">
    <path fill-rule="evenodd" clip-rule="evenodd"
          d="M42.8437 51.3836C40.875 53.3524 37.6827 53.3524 35.7139 51.3836L25.0436 40.7129C23.0748 38.7442 23.0748 35.5519 25.0436 33.5831C27.0123 31.6144 30.2046 31.6144 32.1734 33.5831L39.279 40.6888L68.2382 11.7298C60.9921 4.49181 50.9974 0 40.0003 0C28.9952 0 18.9938 4.49852 11.7463 11.746C4.49852 18.9934 0 28.9945 0 40C0 51.0051 4.49852 61.0066 11.746 68.254C18.9938 75.5015 28.9949 80 40.0003 80C51.0055 80 61.0069 75.5015 68.2543 68.254C75.5021 61.0066 80.0007 51.0055 80.0007 39.9997C80.0007 32.6265 77.9791 25.7061 74.4668 19.7602L42.8437 51.3836Z"
          fill="currentColor"/>
</svg>
