<svg viewBox="0 0 80 80" fill="none" xmlns="http://www.w3.org/2000/svg">
    <path d="M39.9998 0C17.944 0 0 17.9436 0 39.9998C0 62.056 17.944 80 39.9998 80C62.0555 80 79.9996 62.056 79.9996 39.9998C79.9996 17.9436 62.056 0 39.9998 0ZM62.9684 33.2435L37.8385 58.3733C36.77 59.4418 35.3496 60.0299 33.8387 60.0299C32.3277 60.0299 30.9074 59.4418 29.8388 58.3733L17.0312 45.5657C15.9627 44.4972 15.3742 43.0768 15.3742 41.5658C15.3742 40.0545 15.9627 38.6341 17.0312 37.5656C18.0993 36.497 19.5197 35.9085 21.0311 35.9085C22.542 35.9085 23.9628 36.497 25.0309 37.566L33.8383 46.3729L54.9678 25.2434C56.0364 24.1748 57.4567 23.5867 58.9677 23.5867C60.4786 23.5867 61.899 24.1748 62.9675 25.2434C65.1739 27.4497 65.1739 31.038 62.9684 33.2435Z" fill="currentColor"/>
</svg>
