<svg viewBox="0 0 80 80" fill="none" xmlns="http://www.w3.org/2000/svg">
    <path fill-rule="evenodd" clip-rule="evenodd"
          d="M18.1545 0.118824C13.0041 0.433614 9.57209 1.5684 6.61365 3.93496C2.70226 7.06353 0.684982 11.0314 0.155084 16.6387C0.0101987 18.1718 -0.0268218 24.8709 0.0177711 41.4286L0.0788551 64.1176L0.511322 66.0504C1.46898 70.3314 3.20541 73.2119 6.44622 75.896C8.89108 77.9207 11.549 79.0329 15.4757 79.6743C17.1865 79.9538 45.0785 80.1133 45.0785 79.8435C45.0785 79.7422 45.0054 79.5279 44.9161 79.3674C44.8269 79.2069 44.68 78.4706 44.5896 77.7311C44.4993 76.9916 44.3477 75.9768 44.2527 75.4761C44.1578 74.9753 43.9973 72.9333 43.8958 70.9383C43.7945 68.9432 43.6808 67.2165 43.6431 67.1008C43.5916 66.943 42.8081 66.8899 40.4982 66.8872C37.5524 66.8839 34.4081 66.6208 32.7944 66.2425C32.3779 66.145 31.3935 65.9449 30.6068 65.798C29.8201 65.6509 28.6464 65.3771 27.9986 65.1894C26.0003 64.6104 23.9724 63.9802 23.7075 63.8556C23.1657 63.6008 21.589 63.0252 21.4326 63.025C21.3418 63.0249 20.7375 62.7615 20.0896 62.4397C19.4418 62.1178 18.7793 61.8531 18.6172 61.8516C18.4552 61.8501 18.3227 61.7731 18.3227 61.6807C18.3227 61.5882 18.1805 61.5126 18.0067 61.5126C17.8331 61.5126 17.5966 61.3992 17.4814 61.2605C17.3661 61.1218 17.2062 61.0084 17.126 61.0084C16.8904 61.0084 13.6585 59.1672 13.4468 58.9124C13.2989 58.7345 13.3181 58.5546 13.5284 58.1484C13.9351 57.3629 14.6336 56.6387 14.9845 56.6387C15.1541 56.6387 15.8799 56.9528 16.5974 57.3368C19.8517 59.078 22.0805 60.0844 24.2124 60.7751C24.9065 61 25.6259 61.2524 25.811 61.3363C26.4913 61.6442 28.2622 62.1849 28.5905 62.1849C28.7765 62.1849 29.0602 62.2538 29.2209 62.3382C29.3816 62.4224 29.9674 62.5812 30.5227 62.6909C31.078 62.8008 31.9867 62.9923 32.542 63.1163C34.4724 63.5477 37.7755 63.8605 40.5897 63.8783C42.147 63.8881 43.4684 63.8491 43.5261 63.7914C43.5839 63.7336 43.613 63.1595 43.5908 62.5155C43.5685 61.8714 43.6178 61.3445 43.7003 61.3445C43.7828 61.3445 43.8531 59.8509 43.8566 58.0252C43.8602 56.1995 43.9939 53.0042 44.1538 50.9244C44.3138 48.8445 44.4548 46.8782 44.4671 46.5546L44.4895 45.9664L37.0942 45.9225C31.4347 45.8891 29.6678 45.8299 29.5665 45.6704C29.3602 45.3462 29.4052 43.5183 29.6764 41.1953C29.8126 40.0296 30.0444 38.0168 30.1917 36.7227C30.4495 34.4566 30.7004 32.9136 31.1892 30.5882C31.3156 29.9874 31.5079 29.042 31.6168 28.4874C31.7255 27.9328 31.8835 27.3477 31.9678 27.1872C32.0523 27.0267 32.1213 26.7308 32.1213 26.5296C32.1213 26.3286 32.2408 25.7413 32.3868 25.2249C32.5329 24.7084 32.7151 24.0588 32.7917 23.7815C33.5038 21.2035 34.3691 18.5615 35.3234 16.0504C35.7099 15.0336 36.1126 13.9558 36.2183 13.6555C36.324 13.3551 36.4677 13.1092 36.5377 13.1092C36.6075 13.1092 36.6647 13.0161 36.6647 12.9024C36.6647 12.5645 37.3881 10.9244 37.5371 10.9244C37.6126 10.9244 37.6744 10.7768 37.6744 10.5963C37.6744 10.3103 39.7879 5.76958 40.0252 5.54622C40.0741 5.5 40.3716 4.93277 40.6863 4.28571C41.0008 3.63866 41.3121 3.07143 41.3779 3.02521C41.4439 2.97899 41.6317 2.68017 41.7954 2.36118C41.9592 2.04218 42.1969 1.67748 42.3238 1.55076C42.4505 1.4242 42.5543 1.21513 42.5543 1.08639C42.5543 0.957479 42.7058 0.77126 42.8909 0.672269C43.076 0.573277 43.2274 0.381513 43.2274 0.246219C43.2274 0.0319328 41.659 0.00403352 31.1537 0.0310923C24.5131 0.0482352 18.6635 0.0875631 18.1545 0.118824ZM46.3192 0.924034C46.0533 1.4321 45.779 1.84807 45.7095 1.8484C45.64 1.84857 45.5833 1.91479 45.5833 1.99529C45.5833 2.07597 45.1566 2.85109 44.6349 3.71798C43.4578 5.67429 41.1827 10.116 40.212 12.3529C37.1409 19.4304 35.2451 25.7667 33.7251 34.0336C33.4855 35.3371 33.0892 38.7235 32.8647 41.3866L32.7548 42.6891H40.5995C47.9587 42.6891 48.444 42.7072 48.4428 42.9832C48.4421 43.1449 48.2871 43.9202 48.0983 44.7059C47.5829 46.8511 47.1967 51.5395 46.9288 58.9059C46.7866 62.817 46.7981 63.3007 47.0382 63.5277C47.242 63.7205 47.3251 63.7309 47.3843 63.5714C47.4273 63.4558 47.6396 63.3613 47.8562 63.3613C48.6462 63.3613 53.7544 62.1548 54.6338 61.7603C54.9377 61.6242 55.3015 61.5126 55.4424 61.5126C55.583 61.5126 56.016 61.3692 56.4042 61.194C56.7924 61.0187 57.6023 60.6714 58.2039 60.4224C59.7564 59.7795 62.4295 58.4208 64.0328 57.4597C65.8889 56.3471 66.3387 56.3558 67.0882 57.5193C67.3931 57.9929 67.6203 58.5343 67.593 58.7224C67.5609 58.9432 67.0658 59.36 66.197 59.8978C64.5977 60.8879 59.9668 63.2123 58.837 63.5921C58.3985 63.7395 57.9062 63.9328 57.7432 64.0215C57.3275 64.2476 54.0258 65.278 52.3143 65.7156C51.1153 66.0224 47.4793 66.7178 47.0557 66.7215C46.6555 66.725 47.1654 74.4029 47.7736 77.5314C47.9566 78.4733 48.1066 79.4138 48.1069 79.6218L48.1074 80H54.7173C63.2658 80 66.0479 79.6973 69.211 78.4235C71.2365 77.6077 72.6428 76.6736 74.4189 74.9644C76.4094 73.0486 77.7558 71.0637 78.5506 68.8733C79.4714 66.3348 79.7113 64.7056 79.8941 59.7479C80.092 54.3819 79.9908 19.7229 79.7697 17.0588C79.4621 13.355 78.4279 10.0508 76.8764 7.81513C75.4075 5.69866 72.8491 3.3795 70.7672 2.27765C67.2662 0.424538 64.0437 0.00672259 53.2184 0.00252091L46.8024 0L46.3192 0.924034ZM61.0646 22.0168V28.4034H58.5405H56.0164V22.0168V15.6303H58.5405H61.0646V22.0168ZM23.8735 21.7227C23.8723 24.981 23.825 27.8193 23.7686 28.0297C23.6672 28.4079 23.6379 28.4118 21.2888 28.3659L18.9117 28.3193L18.8676 22.0588L18.8235 15.7983H21.3497H23.8758L23.8735 21.7227Z"
          fill="currentColor"/>
</svg>
