<svg viewBox="0 0 81 80" fill="none" xmlns="http://www.w3.org/2000/svg">
  <path d="M50.5 0V20H70.5L50.5 0Z" fill="currentcolor"/>
  <path d="M50.5 25C47.745 25 45.5 22.755 45.5 20V0H15.5C12.745 0 10.5 2.245 10.5 5V75C10.5 77.76 12.745 80 15.5 80H65.5C68.26 80 70.5 77.76 70.5 75V25H50.5ZM28 15.31V12.5C28 11.12 29.12 10 30.5 10C31.88 10 33 11.12 33 12.5V15.315C34.565 15.67 36.025 16.33 37.23 17.31C38.305 18.18 38.465 19.755 37.59 20.825C36.715 21.9 35.14 22.055 34.075 21.185C33.13 20.42 31.86 20 30.5 20C27.79 20 25.5 21.715 25.5 23.75C25.5 25.785 27.79 27.5 30.5 27.5C36.015 27.5 40.5 31.425 40.5 36.25C40.5 40.315 37.3 43.71 33 44.69V47.5C33 48.88 31.88 50 30.5 50C29.12 50 28 48.88 28 47.5V44.685C26.435 44.33 24.975 43.67 23.77 42.69C22.695 41.815 22.535 40.24 23.41 39.17C24.285 38.09 25.855 37.94 26.925 38.81C27.87 39.58 29.14 40 30.5 40C33.21 40 35.5 38.285 35.5 36.25C35.5 34.215 33.21 32.5 30.5 32.5C24.985 32.5 20.5 28.575 20.5 23.75C20.5 19.685 23.7 16.29 28 15.31ZM58 70H23C21.62 70 20.5 68.88 20.5 67.5C20.5 66.12 21.62 65 23 65H58C59.38 65 60.5 66.12 60.5 67.5C60.5 68.88 59.38 70 58 70ZM58 60H23C21.62 60 20.5 58.88 20.5 57.5C20.5 56.12 21.62 55 23 55H58C59.38 55 60.5 56.12 60.5 57.5C60.5 58.88 59.38 60 58 60ZM58 50H48C46.62 50 45.5 48.88 45.5 47.5C45.5 46.12 46.62 45 48 45H58C59.38 45 60.5 46.12 60.5 47.5C60.5 48.88 59.38 50 58 50ZM58 40H48C46.62 40 45.5 38.88 45.5 37.5C45.5 36.12 46.62 35 48 35H58C59.38 35 60.5 36.115 60.5 37.5C60.5 38.88 59.38 40 58 40Z" fill="currentcolor"/>
</svg>
