<svg viewBox="0 0 24 24" fill="none" xmlns="http://www.w3.org/2000/svg">
  <g clip-path="url(#clip0_1339_30819)">
    <path d="M3.21875 22.1407C3.56314 23.2184 4.56214 24 5.73833 24H18.2607C19.4368 24 20.4358 23.2184 20.7802 22.1407H3.21875Z" fill="currentcolor"/>
    <path d="M20.1335 3.85617L17.0533 0.775925C16.9263 0.648847 16.7889 0.536816 16.6426 0.439316V4.25002C16.6426 4.33674 16.7134 4.4071 16.8001 4.4071H20.5569C20.4425 4.20778 20.3005 4.0231 20.1335 3.85617Z" fill="currentcolor"/>
    <path d="M20.9084 5.81358H16.7995C15.9369 5.81358 15.2355 5.11219 15.2355 4.25001V0.0009375C15.2172 0 15.1985 0 15.1802 0H5.73781C4.27784 0 3.08984 1.18805 3.08984 2.64844V9.87178H20.9084L20.9084 5.81358Z" fill="currentcolor"/>
    <path d="M12.026 14.3857H11.3828V17.7027H12.026C12.4596 17.7027 12.6764 17.4619 12.6764 16.98V15.1084C12.6763 14.6267 12.4595 14.3857 12.026 14.3857Z" fill="currentcolor"/>
    <path d="M7.98494 14.3857H7.26953V15.9105H7.98494C8.41853 15.9105 8.63538 15.6697 8.63538 15.1878V15.1084C8.63528 14.6267 8.41848 14.3857 7.98494 14.3857Z" fill="currentcolor"/>
    <path d="M21.0011 11.2784H2.99945C2.01972 11.2784 1.22266 12.0754 1.22266 13.0552V18.9573C1.22266 19.937 2.01972 20.7341 2.99945 20.7341H21.001C21.9808 20.7341 22.7779 19.937 22.7779 18.9573V13.0552C22.7779 12.0754 21.9808 11.2784 21.0011 11.2784ZM9.7638 15.1012H9.76375C9.76375 15.6745 9.60114 16.0973 9.27597 16.3694C8.9508 16.6416 8.52081 16.7777 7.98606 16.7777H7.27066V18.3386C7.27066 18.4494 7.2152 18.5349 7.10444 18.5951C6.99358 18.6554 6.86111 18.6855 6.70698 18.6855C6.55272 18.6855 6.4203 18.6554 6.30948 18.5951C6.19863 18.5349 6.14327 18.4494 6.14327 18.3386V13.7425C6.14327 13.6511 6.18175 13.5716 6.25886 13.5041C6.33588 13.4367 6.43703 13.4029 6.56238 13.4029H8.05825C8.57369 13.4029 8.98689 13.5366 9.29758 13.804C9.60831 14.0714 9.7637 14.4918 9.7637 15.065V15.1012H9.7638ZM13.8033 16.9801C13.8033 17.5679 13.6418 17.999 13.3191 18.2736C12.9963 18.5482 12.565 18.6855 12.0256 18.6855H10.7465C10.6019 18.6855 10.4838 18.6519 10.3924 18.5844C10.3008 18.517 10.255 18.4375 10.255 18.3459V13.7426C10.255 13.6512 10.3008 13.5717 10.3924 13.5042C10.4838 13.4368 10.602 13.403 10.7465 13.403H12.0256C12.565 13.403 12.9963 13.5404 13.3191 13.815C13.6418 14.0895 13.8033 14.5208 13.8033 15.1085V16.9801ZM17.7669 14.2413C17.7066 14.3377 17.6235 14.3858 17.5176 14.3858H15.646V15.6071H16.7372C16.843 15.6071 16.9262 15.6505 16.9865 15.7372C17.0467 15.8239 17.0768 15.9276 17.0768 16.0479C17.0768 16.1587 17.0479 16.2575 16.9901 16.3442C16.9323 16.4309 16.8479 16.4742 16.7372 16.4742H15.646V18.3386C15.646 18.4495 15.5905 18.535 15.4798 18.5952C15.3689 18.6555 15.2365 18.6855 15.0823 18.6855C14.9281 18.6855 14.7956 18.6555 14.6848 18.5952C14.574 18.535 14.5186 18.4495 14.5186 18.3386V13.7498C14.5186 13.6391 14.5667 13.5536 14.6632 13.4933C14.7595 13.4331 14.8751 13.403 15.01 13.403H17.5176C17.6283 13.403 17.7127 13.4512 17.7705 13.5475C17.8283 13.644 17.8572 13.7571 17.8572 13.8872C17.8572 14.0269 17.827 14.1449 17.7669 14.2413Z" fill="currentcolor"/>
  </g>
  <defs>
    <clipPath id="clip0_1339_30819">
      <rect width="24" height="24" fill="currentcolor"/>
    </clipPath>
  </defs>
</svg>
