<svg viewBox="0 0 60 60" fill="none" xmlns="http://www.w3.org/2000/svg">
    <g clip-path="url(#clip0_91_1685)">
        <path d="M46.4062 15.2344C45.4355 15.2344 44.6484 14.4473 44.6484 13.4766V0H19.4531C16.5454 0 14.1797 2.36566 14.1797 5.27344V24.9245C14.7588 24.872 15.3449 24.8438 15.9375 24.8438C21.9291 24.8438 27.2926 27.5831 30.8421 31.875H49.9219C50.8927 31.875 51.6797 32.662 51.6797 33.6328C51.6797 34.6036 50.8927 35.3906 49.9219 35.3906H33.158C34.2567 37.5347 34.9652 39.91 35.1927 42.4219H49.9219C50.8927 42.4219 51.6797 43.2089 51.6797 44.1797C51.6797 45.1505 50.8927 45.9375 49.9219 45.9375H35.1927C34.667 51.7429 31.5653 56.8155 27.042 60H54.6094C57.5171 60 59.8828 57.6343 59.8828 54.7266V15.2344H46.4062ZM49.9219 24.8438H24.1406C23.1698 24.8438 22.3828 24.0567 22.3828 23.0859C22.3828 22.1152 23.1698 21.3281 24.1406 21.3281H49.9219C50.8927 21.3281 51.6797 22.1152 51.6797 23.0859C51.6797 24.0567 50.8927 24.8438 49.9219 24.8438Z"
              fill="currentColor"/>
        <path d="M48.1641 1.0293V11.7188H58.8529L48.1641 1.0293Z" fill="currentColor"/>
        <path d="M15.9375 28.3594C7.21418 28.3594 0.117188 35.4564 0.117188 44.1797C0.117188 52.903 7.21418 60 15.9375 60C24.6608 60 31.7578 52.903 31.7578 44.1797C31.7578 35.4564 24.6608 28.3594 15.9375 28.3594ZM22.4538 48.2102C23.1403 48.8966 23.1403 50.0096 22.4538 50.6961C22.1107 51.0393 21.6608 51.2109 21.2109 51.2109C20.7611 51.2109 20.3112 51.0393 19.968 50.696L15.9375 46.6656L11.907 50.6961C11.5638 51.0393 11.1139 51.2109 10.6641 51.2109C10.2142 51.2109 9.7643 51.0393 9.42117 50.696C8.73469 50.0096 8.73469 48.8966 9.42117 48.2101L13.4516 44.1797L9.42105 40.1491C8.73457 39.4628 8.73457 38.3497 9.42105 37.6632C10.1074 36.9769 11.2205 36.9769 11.907 37.6632L15.9375 41.6938L19.968 37.6632C20.6544 36.9769 21.7675 36.9769 22.4539 37.6632C23.1404 38.3496 23.1404 39.4627 22.4539 40.1491L18.4234 44.1797L22.4538 48.2102Z"
              fill="currentColor"/>
    </g>
    <defs>
        <clipPath id="clip0_91_1685">
            <rect width="60" height="60" fill="currentColor"/>
        </clipPath>
    </defs>
</svg>
