<svg viewBox="0 0 60 60" fill="none" xmlns="http://www.w3.org/2000/svg">
<path fill-rule="evenodd" clip-rule="evenodd" d="M0.909492 0.24164C0.414727 0.502851 0 1.19426 0 1.75781C0 2.3393 0.414492 3.01441 0.934453 3.27973C1.3023 3.46734 1.62574 3.51562 2.51484 3.51562H3.63281V14.6177V25.7198L10.1074 19.2587C13.6685 15.7051 16.7508 12.7131 16.957 12.6097C17.4342 12.3707 17.9564 12.3707 18.4336 12.6097C18.6398 12.7131 21.7221 15.705 25.283 19.2585L31.7573 25.7193L36.4744 21.0166C39.0688 18.4301 41.3602 16.2292 41.5664 16.1257C42.0434 15.8864 42.5655 15.8863 43.043 16.1254C43.2492 16.2287 46.3315 19.2207 49.8926 22.7743L56.3672 29.2355V16.3755V3.51562H57.4852C58.3743 3.51562 58.6977 3.46734 59.0655 3.27973C59.5855 3.01441 60 2.3393 60 1.75781C60 1.17633 59.5855 0.50121 59.0655 0.235898C58.6057 0.00128844 58.4408 -6.10016e-07 29.9754 0.00515564C1.70437 0.0103119 1.34215 0.0132416 0.909492 0.24164ZM30.9503 7.26809C33.7016 7.7898 35.6284 10.4886 35.1804 13.1927C34.7994 15.4916 33.0697 17.2213 30.7709 17.6023C27.3823 18.1637 24.2582 15.0396 24.8196 11.651C25.3103 8.6898 28.0645 6.72082 30.9503 7.26809ZM29.1517 10.9057C28.6569 11.1669 28.2422 11.8583 28.2422 12.4219C28.2422 13.0034 28.6567 13.6785 29.1766 13.9438C29.4309 14.0735 29.8015 14.1797 30 14.1797C30.5815 14.1797 31.2566 13.7652 31.5219 13.2452C31.6516 12.9909 31.7578 12.6204 31.7578 12.4219C31.7578 11.8404 31.3433 11.1653 30.8234 10.9C30.246 10.6055 29.7171 10.6072 29.1517 10.9057ZM10.6344 23.7601L3.63281 30.7624V33.0179V35.2734H2.51484C1.62574 35.2734 1.3023 35.3217 0.934453 35.5093C0.414492 35.7746 0 36.4498 0 37.0312C0 37.6127 0.414492 38.2878 0.934453 38.5532C1.39418 38.7877 1.56445 38.7891 30 38.7891C58.4355 38.7891 58.6058 38.7877 59.0655 38.5532C59.5855 38.2878 60 37.6127 60 37.0312C60 36.4498 59.5855 35.7746 59.0655 35.5093C58.6977 35.3217 58.3743 35.2734 57.4852 35.2734H56.3672V34.775V34.2766L49.3358 27.246L42.3046 20.2154L38.2914 24.2285L34.2783 28.2417L37.7927 31.7576L41.3071 35.2734H38.788H36.2689L27.0117 26.0156C21.9203 20.9238 17.7278 16.7578 17.6952 16.7578C17.6626 16.7578 14.4853 19.9089 10.6344 23.7601ZM11.7893 42.6269C11.7391 42.8743 10.0676 53.3098 9.37699 57.6864C9.25734 58.4447 9.3743 58.9516 9.77215 59.3999C10.2332 59.9193 10.6329 60 12.7448 60C14.558 60 14.7573 59.9789 15.232 59.7363C15.5619 59.5678 15.8237 59.3237 15.9577 59.0599C16.0866 58.8057 16.4386 56.9816 16.8735 54.3138C17.2618 51.9305 17.6099 49.8354 17.6468 49.6582L17.7139 49.3359H22.0991H26.4844V53.9695C26.4844 58.3821 26.4956 58.6252 26.7203 59.0655C27.1397 59.8876 27.5343 60 30 60C32.4657 60 32.8603 59.8876 33.2797 59.0655C33.5044 58.6252 33.5156 58.3821 33.5156 53.9695V49.3359H37.9009H42.2861L42.3532 49.6582C42.3901 49.8354 42.7382 51.9305 43.1265 54.3138C43.5614 56.9816 43.9134 58.8057 44.0423 59.0599C44.1763 59.3237 44.4381 59.5678 44.768 59.7363C45.2452 59.9802 45.4389 60 47.3411 60C49.1181 60 49.4538 59.9705 49.8066 59.783C50.3554 59.4914 50.7422 58.9008 50.7422 58.3545C50.7422 58 48.4563 43.7846 48.2132 42.6269L48.1454 42.3047H44.6298H41.1142L41.1791 42.6269C41.2148 42.8041 41.3258 43.4502 41.4258 44.0625C41.5257 44.6748 41.6367 45.3209 41.6725 45.498L41.7374 45.8203H37.6264H33.5156V44.0625V42.3047H30H26.4844V44.0625V45.8203H22.3736H18.2626L18.3275 45.498C18.3633 45.3209 18.4743 44.6748 18.5742 44.0625C18.6742 43.4502 18.7852 42.8041 18.8209 42.6269L18.8858 42.3047H15.3702H11.8546L11.7893 42.6269Z" fill="currentcolor"/>
</svg>
