<svg viewBox="0 0 81 80" fill="none" xmlns="http://www.w3.org/2000/svg">
  <g clip-path="url(#clip0_654_8682)">
    <path d="M25.438 43.6355C27.6063 43.6355 29.3704 41.8714 29.3704 39.7031C29.3704 37.5348 27.6063 35.7708 25.438 35.7708C23.2698 35.7708 21.5059 37.5348 21.5059 39.7031C21.5059 41.8714 23.2698 43.6355 25.438 43.6355Z" fill="currentcolor"/>
    <path d="M25.4368 48.323C22.009 48.323 19.0974 50.5748 18.1035 53.6772H32.7699C31.7762 50.5748 28.8645 48.323 25.4368 48.323Z" fill="currentcolor"/>
    <path d="M73.1353 11H7.86469C3.74953 11 0.5 14.3422 0.5 18.3647V61.0417C0.5 65.1567 3.84219 68.4063 7.86469 68.4063H73.1353C77.2505 68.4063 80.5 65.0641 80.5 61.0416V18.3647C80.5 14.2494 77.1578 11 73.1353 11ZM35.4791 58.3647H15.3958C14.1014 58.3647 13.052 57.3153 13.052 56.0209C13.052 51.5436 15.4402 47.6139 19.0094 45.438C17.6477 43.9131 16.8178 41.9036 16.8178 39.7033C16.8178 34.9503 20.6845 31.0834 25.4375 31.0834C30.1905 31.0834 34.0573 34.9503 34.0573 39.7033C34.0573 41.9038 33.2275 43.9133 31.8656 45.4381C35.4348 47.6141 37.823 51.5439 37.823 56.0211C37.8228 57.3153 36.7734 58.3647 35.4791 58.3647ZM60.5833 58.3647H48.0312C46.7369 58.3647 45.6875 57.3153 45.6875 56.0209C45.6875 54.7266 46.7369 53.6772 48.0312 53.6772H60.5833C61.8777 53.6772 62.927 54.7266 62.927 56.0209C62.927 57.3153 61.8777 58.3647 60.5833 58.3647ZM65.6042 48.323H48.0312C46.7369 48.323 45.6875 47.2736 45.6875 45.9792C45.6875 44.6848 46.7369 43.6355 48.0312 43.6355H65.6042C66.8986 43.6355 67.948 44.6848 67.948 45.9792C67.948 47.2736 66.8986 48.323 65.6042 48.323ZM65.6042 38.2812H48.0312C46.7369 38.2812 45.6875 37.2319 45.6875 35.9375C45.6875 34.6431 46.7369 33.5937 48.0312 33.5937H65.6042C66.8986 33.5937 67.948 34.6431 67.948 35.9375C67.948 37.2319 66.8986 38.2812 65.6042 38.2812ZM65.6042 25.7291H15.3958C14.1014 25.7291 13.052 24.6797 13.052 23.3853C13.052 22.0909 14.1014 21.0416 15.3958 21.0416H65.6042C66.8986 21.0416 67.948 22.0909 67.948 23.3853C67.948 24.6797 66.8986 25.7291 65.6042 25.7291Z" fill="currentcolor"/>
  </g>
  <defs>
    <clipPath id="clip0_654_8682">
      <rect width="80" height="80" fill="currentcolor" transform="translate(0.5)"/>
    </clipPath>
  </defs>
</svg>
