<svg viewBox="0 0 17 17" fill="none" xmlns="http://www.w3.org/2000/svg">
  <g clip-path="url(#clip0_1339_32999)">
    <path d="M14.7274 8.09092C14.5152 7.87878 14.2577 7.77279 13.9545 7.77279H13.5911V5.59085C13.5911 4.19693 13.0913 3.00007 12.0912 2.00007C11.0912 1.00002 9.8945 0.5 8.50038 0.5C7.10631 0.5 5.90933 1.00002 4.90944 2.00003C3.9094 3.00007 3.40953 4.19689 3.40953 5.59085V7.77279H3.04595C2.74302 7.77279 2.48539 7.87878 2.27325 8.09092C2.06111 8.3029 1.95508 8.56054 1.95508 8.86374V15.4091C1.95508 15.7121 2.06115 15.9698 2.27325 16.1819C2.48539 16.3939 2.74302 16.5 3.04595 16.5H13.9548C14.258 16.5 14.5154 16.394 14.7276 16.1819C14.9396 15.9698 15.0458 15.7121 15.0458 15.4091V8.86362C15.046 8.56066 14.9396 8.30306 14.7274 8.09092ZM11.4094 7.77279H5.59135V5.59085C5.59135 4.78786 5.8755 4.10221 6.44366 3.53412C7.0119 2.96596 7.69744 2.68194 8.5005 2.68194C9.30365 2.68194 9.98903 2.96592 10.5573 3.53412C11.1253 4.10217 11.4094 4.78786 11.4094 5.59085V7.77279Z" fill="currentcolor"/>
  </g>
  <defs>
    <clipPath id="clip0_1339_32999">
      <rect width="16" height="16" fill="currentcolor" transform="translate(0.5 0.5)"/>
    </clipPath>
  </defs>
</svg>
