<svg width="16" height="16" viewBox="0 0 16 16" fill="none" xmlns="http://www.w3.org/2000/svg">
<path d="M8.31059 0H6.97726C6.85874 0 6.79948 0.0592593 6.79948 0.177778V7.15556H0.177778C0.0592593 7.15556 0 7.21481 0 7.33333V8.66667C0 8.78519 0.0592593 8.84445 0.177778 8.84445H6.79948V15.8222C6.79948 15.9407 6.85874 16 6.97726 16H8.31059C8.42911 16 8.48837 15.9407 8.48837 15.8222V8.84445H15.1111C15.2296 8.84445 15.2889 8.78519 15.2889 8.66667V7.33333C15.2889 7.21481 15.2296 7.15556 15.1111 7.15556H8.48837V0.177778C8.48837 0.0592593 8.42911 0 8.31059 0Z" fill="white" fill-opacity="0.85"/>
</svg>
