<svg width="231" height="257" viewBox="0 0 231 257" fill="none" xmlns="http://www.w3.org/2000/svg">
<rect x="1" y="0.5" width="229" height="255.68" rx="11.5" fill="#0E0E12" stroke="#1A1A1E"/>
<path d="M15 84H202" stroke="#1A1A1E"/>
<path d="M15 104H152" stroke="#1A1A1E"/>
<rect x="92.5" y="149.96" width="23" height="5.52" rx="2.76" fill="#1A1A1E"/>
<rect x="15" y="94" width="71" height="5" rx="2.5" fill="#1A1A1E"/>
<path d="M160 49.58H220" stroke="#1A1A1E"/>
<rect x="160" y="39" width="60" height="5.52" rx="2.76" fill="#1A1A1E"/>
<path d="M160 69.58H220" stroke="#1A1A1E"/>
<rect x="160" y="59" width="60" height="5.52" rx="2.76" fill="#1A1A1E"/>
<path d="M15 235.58H75" stroke="#1A1A1E"/>
<rect x="15" y="225" width="60" height="5.52" rx="2.76" fill="#1A1A1E"/>
<path d="M160 30.58H220" stroke="#1A1A1E"/>
<rect x="160" y="20" width="60" height="5.52" rx="2.76" fill="#1A1A1E"/>
<path d="M15 148H98" stroke="#1A1A1E"/>
<path d="M107 148H158" stroke="#1A1A1E"/>
<path d="M169 148H220" stroke="#1A1A1E"/>
<rect x="15" y="138" width="23" height="5" rx="2.5" fill="#1A1A1E"/>
<path d="M15 124H98" stroke="#1A1A1E"/>
<path d="M107 124H191" stroke="#1A1A1E"/>
<rect x="15" y="114" width="39" height="5" rx="2.5" fill="#1A1A1E"/>
<rect x="107" y="114" width="70" height="5" rx="2.5" fill="#1A1A1E"/>
<path d="M15 174H98" stroke="#1A1A1E"/>
<path d="M107 174H191" stroke="#1A1A1E"/>
<rect x="15" y="164" width="39" height="5" rx="2.5" fill="#1A1A1E"/>
<rect x="107" y="164" width="70" height="5" rx="2.5" fill="#1A1A1E"/>
</svg>
