<svg width="230" height="257" viewBox="0 0 230 257" fill="none" xmlns="http://www.w3.org/2000/svg">
    <rect x="0.5" y="0.5" width="229" height="255.68" rx="11.5" fill="#16191E" stroke="#23272F"/>
    <path d="M14.5 84H201.5" stroke="#23272F"/>
    <path d="M14.5 104H151.5" stroke="#23272F"/>
    <rect x="92" y="149.96" width="23" height="5.52" rx="2.76" fill="#23272F"/>
    <rect x="14.5" y="94" width="71" height="5" rx="2.5" fill="#23272F"/>
    <path d="M159.5 49.58H219.5" stroke="#23272F"/>
    <rect x="159.5" y="39" width="60" height="5.52" rx="2.76" fill="#23272F"/>
    <path d="M159.5 69.58H219.5" stroke="#23272F"/>
    <rect x="159.5" y="59" width="60" height="5.52" rx="2.76" fill="#23272F"/>
    <path d="M14.5 235.58H74.5" stroke="#23272F"/>
    <rect x="14.5" y="225" width="60" height="5.52" rx="2.76" fill="#23272F"/>
    <path d="M159.5 30.58H219.5" stroke="#23272F"/>
    <rect x="159.5" y="20" width="60" height="5.52" rx="2.76" fill="#23272F"/>
    <path d="M14.5 148H97.5" stroke="#23272F"/>
    <path d="M106.5 148H157.5" stroke="#23272F"/>
    <path d="M168.5 148H219.5" stroke="#23272F"/>
    <rect x="14.5" y="138" width="23" height="5" rx="2.5" fill="#23272F"/>
    <path d="M14.5 124H97.5" stroke="#23272F"/>
    <path d="M106.5 124H190.5" stroke="#23272F"/>
    <rect x="14.5" y="114" width="39" height="5" rx="2.5" fill="#23272F"/>
    <rect x="106.5" y="114" width="70" height="5" rx="2.5" fill="#23272F"/>
    <path d="M14.5 174H97.5" stroke="#23272F"/>
    <path d="M106.5 174H190.5" stroke="#23272F"/>
    <rect x="14.5" y="164" width="39" height="5" rx="2.5" fill="#23272F"/>
    <rect x="106.5" y="164" width="70" height="5" rx="2.5" fill="#23272F"/>
</svg>
