<svg width="320" height="188" viewBox="0 0 320 188" fill="none" xmlns="http://www.w3.org/2000/svg">
<mask id="mask0_728_3956" style="mask-type:alpha" maskUnits="userSpaceOnUse" x="0" y="0" width="320" height="188">
<rect x="0.5" y="0.5" width="319" height="186.826" rx="11.5" fill="#0E0E12" stroke="#1A1A1E"/>
<path d="M129.387 107.158H198.507" stroke="#1A1A1E"/>
<path d="M206.189 107.158H275.309" stroke="#1A1A1E"/>
<path d="M129.387 140.438H198.507" stroke="#1A1A1E"/>
<path d="M21.8711 166.039H151.151" stroke="#1A1A1E"/>
<path d="M206.189 140.438H248.429" stroke="#1A1A1E"/>
<path d="M165.238 166.039H207.478" stroke="#1A1A1E"/>
<path d="M257.387 140.438H299.627" stroke="#1A1A1E"/>
<rect x="21.5645" y="20.8696" width="276.87" height="8.34783" rx="4.17391" fill="#1A1A1E"/>
<rect x="128.693" y="50.0869" width="115.478" height="8.34783" rx="4.17391" fill="#1A1A1E"/>
<rect x="129.387" y="86.873" width="32" height="7.68" rx="3.84" fill="#1A1A1E"/>
<rect x="130.08" y="125.217" width="65.3913" height="8.34783" rx="4.17391" fill="#1A1A1E"/>
<rect width="41.7391" height="8.34783" rx="4.17391" transform="matrix(-1 0 0 1 248.355 125.217)" fill="#1A1A1E"/>
<rect width="41.7391" height="8.34783" rx="4.17391" transform="matrix(-1 0 0 1 298.436 125.217)" fill="#1A1A1E"/>
<rect x="175.307" y="86.873" width="57.6" height="7.68" rx="3.84" fill="#1A1A1E"/>
<rect x="21.5645" y="50.0869" width="89.6" height="102.4" rx="8" fill="#1A1A1E"/>
<g clip-path="url(#clip0_728_3956)">
<path d="M66.6484 76.522C59.2045 76.522 53.1484 82.5781 53.1484 90.022C53.1484 97.4659 59.2045 103.522 66.6484 103.522C74.0923 103.522 80.1484 97.4659 80.1484 90.022C80.1484 82.5781 74.0923 76.522 66.6484 76.522Z" fill="#0E0E12"/>
<path d="M83.445 112.341C79.749 108.589 74.8493 106.522 69.6484 106.522H63.6484C58.4476 106.522 53.5478 108.589 49.8518 112.341C46.1739 116.076 44.1484 121.005 44.1484 126.222C44.1484 127.05 44.82 127.722 45.6484 127.722H87.6484C88.4768 127.722 89.1484 127.05 89.1484 126.222C89.1484 121.005 87.1229 116.076 83.445 112.341Z" fill="#0E0E12"/>
</g>
<path d="M74.0011 45.4664L73.947 46.27L74.6912 45.962L88.2427 40.3545L74.0184 91.3657L73.7714 92.2515L74.6491 91.9772L98 84.6801V137L98.9472 137.224L130.947 73.2236L131.248 72.6213L130.585 72.5072L99.5035 67.1651L132.364 32.3432L132.978 31.6923L132.102 31.5104L106.412 26.1787L126.886 1.31785L127.559 0.5H126.5H77.5H77.0326L77.0011 0.966368L74.0011 45.4664Z" fill="#000001" stroke="#1A1A1E"/>
<path d="M263.852 156.64L247.387 161.734V125L246.441 124.775L223.623 169.951L223.318 170.556L223.986 170.669L245.105 174.263L231.307 180.039L230.563 180.35L231.173 180.878L238.673 187.378L238.813 187.5H239H264H265.207L264.354 186.646L256.086 178.379L264.465 157.302L264.851 156.331L263.852 156.64Z" fill="#000001" stroke="#1A1A1E"/>
</mask>
<g mask="url(#mask0_728_3956)">
<rect x="0.5" y="0.5" width="319" height="186.826" rx="11.5" fill="#16191E"/>
<rect x="0.5" y="0.5" width="319" height="186.826" rx="11.5" stroke="#FEB804"/>
<rect x="0.5" y="0.5" width="319" height="186.826" rx="11.5" stroke="black" stroke-opacity="0.2"/>
<path d="M129.387 107.158H198.507" stroke="#291B01" stroke-opacity="0.8"/>
<path d="M206.189 107.158H275.309" stroke="#23272F" stroke-opacity="0.8"/>
<path d="M129.387 140.438H198.507" stroke="#23272F" stroke-opacity="0.8"/>
<path d="M21.8711 166.039H151.151" stroke="#23272F" stroke-opacity="0.8"/>
<path d="M206.189 140.438H248.429" stroke="#23272F" stroke-opacity="0.8"/>
<path d="M165.238 166.039H207.478" stroke="#23272F" stroke-opacity="0.8"/>
<path d="M257.387 140.438H299.627" stroke="#23272F" stroke-opacity="0.8"/>
<rect x="21.5645" y="20.8696" width="276.87" height="8.34783" rx="4.17391" fill="#23272F"/>
<rect x="128.693" y="50.0869" width="115.478" height="8.34783" rx="4.17391" fill="#23272F"/>
<rect x="129.387" y="86.873" width="32" height="7.68" rx="3.84" fill="#23272F"/>
<rect x="130.08" y="125.217" width="65.3913" height="8.34783" rx="4.17391" fill="#23272F"/>
<rect width="41.7391" height="8.34783" rx="4.17391" transform="matrix(-1 0 0 1 248.355 125.217)" fill="#23272F"/>
<rect width="41.7391" height="8.34783" rx="4.17391" transform="matrix(-1 0 0 1 298.436 125.217)" fill="#23272F"/>
<rect x="175.307" y="86.873" width="57.6" height="7.68" rx="3.84" fill="#23272F"/>
<rect x="21.5645" y="50.0869" width="89.6" height="102.4" rx="8" fill="#23272F"/>
<g clip-path="url(#clip1_728_3956)">
<path d="M66.6484 76.522C59.2045 76.522 53.1484 82.5781 53.1484 90.022C53.1484 97.4659 59.2045 103.522 66.6484 103.522C74.0923 103.522 80.1484 97.4659 80.1484 90.022C80.1484 82.5781 74.0923 76.522 66.6484 76.522Z" fill="#16191E"/>
<path d="M83.445 112.341C79.749 108.589 74.8493 106.522 69.6484 106.522H63.6484C58.4476 106.522 53.5478 108.589 49.8518 112.341C46.1739 116.076 44.1484 121.005 44.1484 126.222C44.1484 127.05 44.82 127.722 45.6484 127.722H87.6484C88.4768 127.722 89.1484 127.05 89.1484 126.222C89.1484 121.005 87.1229 116.076 83.445 112.341Z" fill="#16191E"/>
</g>
<rect x="-33" y="-35" width="368" height="235" fill="#FEB804" fill-opacity="0.6" style="mix-blend-mode:color"/>
<path d="M77.5 0.5H77.0326L77.0011 0.966368L74.0011 45.4664L73.947 46.27L74.6912 45.962L88.2427 40.3545L74.0184 91.3657L73.7714 92.2515L74.6491 91.9772L98 84.6801V137L98.9472 137.224L130.947 73.2236L131.248 72.6213L130.585 72.5072L99.5035 67.1651L132.364 32.3432L132.978 31.6923L132.102 31.5104L106.412 26.1787L126.886 1.31785L127.559 0.5H126.5H77.5Z" fill="#121418" stroke="#121418"/>
<path d="M264 187.5H265.207L264.354 186.646L256.086 178.379L264.465 157.302L264.851 156.331L263.852 156.64L247.387 161.734V125L246.441 124.775L223.623 169.951L223.318 170.556L223.986 170.669L245.105 174.263L231.307 180.039L230.563 180.35L231.173 180.878L238.673 187.378L238.813 187.5H239H264Z" fill="#121418" stroke="#121418"/>
</g>
<rect x="0.5" y="0.5" width="319" height="186.826" rx="19.5" stroke="#FEB804"/>
<rect x="0.5" y="0.5" width="319" height="186.826" rx="19.5" stroke="black" stroke-opacity="0.2"/>
<defs>
<clipPath id="clip0_728_3956">
<rect width="51.2" height="51.2" fill="white" transform="translate(41.0488 76.522)"/>
</clipPath>
<clipPath id="clip1_728_3956">
<rect width="51.2" height="51.2" fill="white" transform="translate(41.0488 76.522)"/>
</clipPath>
</defs>
</svg>
