    <svg width="230" height="261" viewBox="0 0 230 261" fill="none" xmlns="http://www.w3.org/2000/svg">
<rect x="0.5" y="1.5" width="229" height="259" rx="11.5" fill="#16191E" stroke="#FEB804"/>
<path d="M14.5 85H201.5" stroke="#23272F"/>
<path d="M14.5 105H151.5" stroke="#23272F"/>
<rect x="92" y="150.96" width="23" height="5.52" rx="2.76" fill="#23272F"/>
<rect x="14.5" y="95" width="71" height="5" rx="2.5" fill="#23272F"/>
<path d="M159.5 50.58H219.5" stroke="#23272F"/>
<rect x="159.5" y="40" width="60" height="5.52" rx="2.76" fill="#23272F"/>
<path d="M159.5 70.58H219.5" stroke="#23272F"/>
<rect x="159.5" y="60" width="60" height="5.52" rx="2.76" fill="#23272F"/>
<path d="M14.5 236.58H74.5" stroke="#23272F"/>
<rect x="14.5" y="226" width="60" height="5.52" rx="2.76" fill="#23272F"/>
<path d="M159.5 31.58H219.5" stroke="#23272F"/>
<rect x="159.5" y="21" width="60" height="5.52" rx="2.76" fill="#23272F"/>
<path d="M14.5 149H97.5" stroke="#23272F"/>
<path d="M106.5 149H157.5" stroke="#23272F"/>
<path d="M168.5 149H219.5" stroke="#23272F"/>
<rect x="14.5" y="139" width="23" height="5" rx="2.5" fill="#23272F"/>
<path d="M14.5 125H97.5" stroke="#23272F"/>
<path d="M106.5 125H190.5" stroke="#23272F"/>
<rect x="14.5" y="115" width="39" height="5" rx="2.5" fill="#23272F"/>
<rect x="106.5" y="115" width="70" height="5" rx="2.5" fill="#23272F"/>
<path d="M14.5 175H97.5" stroke="#23272F"/>
<path d="M106.5 175H190.5" stroke="#23272F"/>
<rect x="14.5" y="165" width="39" height="5" rx="2.5" fill="#23272F"/>
<rect x="106.5" y="165" width="70" height="5" rx="2.5" fill="#23272F"/>
<path d="M0 1H230V258H0V1Z" fill="#FEB804" fill-opacity="0.6" style="mix-blend-mode:color"/>
<path d="M33 0.5H32.5326L32.5011 0.966368L29.5011 45.4664L29.447 46.27L30.1912 45.962L43.7427 40.3545L29.5184 91.3657L29.2714 92.2515L30.1491 91.9772L53.5 84.6801V137L54.4472 137.224L86.4472 73.2236L86.7484 72.6213L86.0847 72.5072L55.0035 67.1651L87.8636 32.3432L88.4778 31.6923L87.6016 31.5104L61.9123 26.1787L82.386 1.31785L83.0595 0.5H82H33Z" fill="#121418" stroke="#121418"/>
<path d="M202 260.5H203.209L202.353 259.646L194.072 251.379L202.465 230.303L202.851 229.331L201.852 229.64L185.357 234.734V198L184.411 197.774L161.554 242.951L161.248 243.556L161.916 243.669L183.072 247.263L169.251 253.039L168.506 253.35L169.116 253.878L176.629 260.378L176.77 260.5H176.956H202Z" fill="#121418" stroke="#121418"/>
</svg>
