<svg width="230" height="257" viewBox="0 0 230 257" fill="none" xmlns="http://www.w3.org/2000/svg">
    <g clip-path="url(#clip0_2031_7789)">
        <rect x="1" y="1" width="228" height="254.68" rx="11" fill="#16191E" stroke="#FEB804" stroke-width="2"/>
        <path d="M2 128.8H228" stroke="#23272F"/>
        <path d="M92 160.54H203.32" stroke="#23272F"/>
        <path d="M92 180.78H173.88" stroke="#23272F"/>
        <path d="M92 201.02H141.68" stroke="#23272F"/>
        <path d="M147.199 201.02H196.879" stroke="#23272F"/>
        <path d="M92 224.94H141.68" stroke="#23272F"/>
        <path d="M14.7188 243.34H107.639" stroke="#23272F"/>
        <path d="M147.199 224.94H177.559" stroke="#23272F"/>
        <path d="M117.762 243.34H148.122" stroke="#23272F"/>
        <path d="M184 224.94H214.36" stroke="#23272F"/>
        <rect x="14.7188" y="157.32" width="64.4" height="73.6" rx="8" fill="#23272F"/>
        <rect x="92" y="149.96" width="23" height="5.52" rx="2.76" fill="#23272F"/>
        <rect x="92" y="170.2" width="42.32" height="5.52" rx="2.76" fill="#23272F"/>
        <path d="M75.4414 73.1401H157.321" stroke="#23272F"/>
        <rect x="93.8398" y="62.5601" width="42.32" height="5.52" rx="2.76" fill="#23272F"/>
        <path d="M52.4414 45.54H181.241" stroke="#23272F"/>
        <rect x="93.8398" y="34.96" width="42.32" height="5.52" rx="2.76" fill="#23272F"/>
        <rect x="92" y="190.44" width="23" height="5.52" rx="2.76" fill="#23272F"/>
        <rect x="92" y="214.36" width="13.8" height="5.52" rx="2.76" fill="#23272F"/>
        <rect x="147.199" y="190.44" width="41.4" height="5.52" rx="2.76" fill="#23272F"/>
        <g clip-path="url(#clip1_2031_7789)">
            <path d="M46.9199 175.72C41.5696 175.72 37.2168 180.073 37.2168 185.423C37.2168 190.774 41.5696 195.126 46.9199 195.126C52.2702 195.126 56.623 190.774 56.623 185.423C56.623 180.073 52.2702 175.72 46.9199 175.72Z"
                  fill="#16191E"/>
            <path d="M58.9925 201.465C56.336 198.768 52.8143 197.283 49.0762 197.283H44.7637C41.0256 197.283 37.5039 198.768 34.8474 201.465C32.2039 204.15 30.748 207.693 30.748 211.442C30.748 212.038 31.2308 212.52 31.8262 212.52H62.0137C62.6091 212.52 63.0918 212.038 63.0918 211.442C63.0918 207.693 61.636 204.15 58.9925 201.465Z"
                  fill="#16191E"/>
        </g>
        <rect width="230" height="257" fill="#FEB804" fill-opacity="0.6" style="mix-blend-mode:color"/>
        <path d="M35 0.5H34.5326L34.5011 0.966368L31.5011 45.4664L31.447 46.27L32.1912 45.962L45.7427 40.3545L31.5184 91.3657L31.2714 92.2515L32.1491 91.9772L55.5 84.6801V137L56.4472 137.224L88.4472 73.2236L88.7484 72.6213L88.0847 72.5072L57.0035 67.1651L89.8636 32.3432L90.4778 31.6923L89.6016 31.5104L63.9123 26.1787L84.386 1.31785L85.0595 0.5H84H35Z"
              fill="#121418" stroke="#121418"/>
        <path d="M207.93 256.5H209.137L208.283 255.646L200.016 247.379L208.394 226.302L208.78 225.331L207.782 225.64L191.317 230.734V194L190.37 193.775L167.553 238.951L167.248 239.556L167.915 239.669L189.035 243.263L175.237 249.039L174.493 249.35L175.102 249.878L182.602 256.378L182.743 256.5H182.93H207.93Z"
              fill="#121418" stroke="#121418"/>
    </g>
    <defs>
        <clipPath id="clip0_2031_7789">
            <rect width="230" height="256.68" rx="12" fill="white"/>
        </clipPath>
        <clipPath id="clip1_2031_7789">
            <rect width="36.8" height="36.8" fill="white" transform="translate(28.5195 175.72)"/>
        </clipPath>
    </defs>
</svg>
