<svg width="320" height="188" viewBox="0 0 320 188" fill="none" xmlns="http://www.w3.org/2000/svg">
<rect x="0.5" y="0.5" width="319" height="187" rx="11.5" fill="#0E0E12" stroke="#1A1A1E"/>
<path d="M129.387 107.257H198.507" stroke="#1A1A1E"/>
<path d="M206.189 107.257H275.309" stroke="#1A1A1E"/>
<path d="M129.387 140.568H198.507" stroke="#1A1A1E"/>
<path d="M21.8711 166.192H151.151" stroke="#1A1A1E"/>
<path d="M206.189 140.568H248.429" stroke="#1A1A1E"/>
<path d="M165.238 166.192H207.478" stroke="#1A1A1E"/>
<path d="M257.387 140.568H299.627" stroke="#1A1A1E"/>
<rect x="21.5645" y="20.8888" width="276.87" height="8.35555" rx="4.17778" fill="#1A1A1E"/>
<rect x="128.693" y="50.1331" width="115.478" height="8.35555" rx="4.17778" fill="#1A1A1E"/>
<rect x="129.387" y="86.9535" width="32" height="7.68711" rx="3.84355" fill="#1A1A1E"/>
<rect x="130.08" y="125.333" width="65.3913" height="8.35555" rx="4.17778" fill="#1A1A1E"/>
<rect width="41.7391" height="8.35555" rx="4.17778" transform="matrix(-1 0 0 1 248.355 125.333)" fill="#1A1A1E"/>
<rect width="41.7391" height="8.35555" rx="4.17778" transform="matrix(-1 0 0 1 298.436 125.333)" fill="#1A1A1E"/>
<rect x="175.307" y="86.9535" width="57.6" height="7.68711" rx="3.84355" fill="#1A1A1E"/>
<rect x="21.5645" y="50.1331" width="89.6" height="102.495" rx="8" fill="#1A1A1E"/>
<g clip-path="url(#clip0_1782_7613)">
<path d="M66.6484 76.5925C59.2045 76.5925 53.1484 82.6542 53.1484 90.105C53.1484 97.5558 59.2045 103.618 66.6484 103.618C74.0923 103.618 80.1484 97.5558 80.1484 90.105C80.1484 82.6542 74.0923 76.5925 66.6484 76.5925Z" fill="#0E0E12"/>
<path d="M83.445 112.445C79.749 108.689 74.8493 106.62 69.6484 106.62H63.6484C58.4476 106.62 53.5478 108.689 49.8518 112.445C46.1739 116.183 44.1484 121.117 44.1484 126.339C44.1484 127.168 44.82 127.84 45.6484 127.84H87.6484C88.4768 127.84 89.1484 127.168 89.1484 126.339C89.1484 121.117 87.1229 116.183 83.445 112.445Z" fill="#0E0E12"/>
</g>
<defs>
<clipPath id="clip0_1782_7613">
<rect width="51.2" height="51.2474" fill="white" transform="translate(41.0488 76.5925)"/>
</clipPath>
</defs>
</svg>
