<svg width="320" height="188" viewBox="0 0 320 188" fill="none" xmlns="http://www.w3.org/2000/svg">
    <rect x="0.5" y="0.5" width="319" height="186.826" rx="11.5" fill="#16191E" stroke="#23272F"/>
    <path d="M129.387 107.158H198.507" stroke="#23272F"/>
    <path d="M206.189 107.158H275.309" stroke="#23272F"/>
    <path d="M129.387 140.438H198.507" stroke="#23272F"/>
    <path d="M21.8711 166.038H151.151" stroke="#23272F"/>
    <path d="M206.189 140.438H248.429" stroke="#23272F"/>
    <path d="M165.238 166.038H207.478" stroke="#23272F"/>
    <path d="M257.387 140.438H299.627" stroke="#23272F"/>
    <rect x="21.5645" y="20.8694" width="276.87" height="8.34783" rx="4.17391" fill="#23272F"/>
    <rect x="128.693" y="50.0867" width="115.478" height="8.34783" rx="4.17391" fill="#23272F"/>
    <rect x="129.387" y="86.873" width="32" height="7.68" rx="3.84" fill="#23272F"/>
    <rect x="130.08" y="125.217" width="65.3913" height="8.34783" rx="4.17391" fill="#23272F"/>
    <rect width="41.7391" height="8.34783" rx="4.17391" transform="matrix(-1 0 0 1 248.355 125.217)" fill="#23272F"/>
    <rect width="41.7391" height="8.34783" rx="4.17391" transform="matrix(-1 0 0 1 298.436 125.217)" fill="#23272F"/>
    <rect x="175.307" y="86.873" width="57.6" height="7.68" rx="3.84" fill="#23272F"/>
    <rect x="21.5645" y="50.0867" width="89.6" height="102.4" rx="8" fill="#23272F"/>
    <g clip-path="url(#clip0_655_9198)">
        <path d="M66.6484 76.5217C59.2045 76.5217 53.1484 82.5778 53.1484 90.0217C53.1484 97.4656 59.2045 103.522 66.6484 103.522C74.0923 103.522 80.1484 97.4656 80.1484 90.0217C80.1484 82.5778 74.0923 76.5217 66.6484 76.5217Z"
              fill="#16191E"/>
        <path d="M83.445 112.341C79.749 108.588 74.8493 106.522 69.6484 106.522H63.6484C58.4476 106.522 53.5478 108.588 49.8518 112.341C46.1739 116.076 44.1484 121.005 44.1484 126.222C44.1484 127.05 44.82 127.722 45.6484 127.722H87.6484C88.4768 127.722 89.1484 127.05 89.1484 126.222C89.1484 121.005 87.1229 116.076 83.445 112.341Z"
              fill="#16191E"/>
    </g>
    <defs>
        <clipPath id="clip0_655_9198">
            <rect width="51.2" height="51.2" fill="white" transform="translate(41.0488 76.5217)"/>
        </clipPath>
    </defs>
</svg>
