<svg width="231" height="257" viewBox="0 0 231 257" fill="none" xmlns="http://www.w3.org/2000/svg">
<rect x="1" y="0.5" width="229" height="255.68" rx="11.5" fill="#0E0E12" stroke="#1A1A1E"/>
<path d="M0.5 128.8H230.5" stroke="#1A1A1E"/>
<path d="M92.5 160.54H203.82" stroke="#1A1A1E"/>
<path d="M92.5 180.78H174.38" stroke="#1A1A1E"/>
<path d="M92.5 201.02H142.18" stroke="#1A1A1E"/>
<path d="M147.699 201.02H197.379" stroke="#1A1A1E"/>
<path d="M92.5 224.94H142.18" stroke="#1A1A1E"/>
<path d="M15.2188 243.34H108.139" stroke="#1A1A1E"/>
<path d="M147.699 224.94H178.059" stroke="#1A1A1E"/>
<path d="M118.262 243.34H148.622" stroke="#1A1A1E"/>
<path d="M184.5 224.94H214.86" stroke="#1A1A1E"/>
<rect x="15.2188" y="157.32" width="64.4" height="73.6" rx="8" fill="#1A1A1E"/>
<rect x="92.5" y="149.96" width="23" height="5.52" rx="2.76" fill="#1A1A1E"/>
<rect x="92.5" y="170.2" width="42.32" height="5.52" rx="2.76" fill="#1A1A1E"/>
<path d="M75.9414 73.14H157.821" stroke="#1A1A1E"/>
<rect x="94.3398" y="62.5601" width="42.32" height="5.52" rx="2.76" fill="#1A1A1E"/>
<path d="M52.9414 45.54H181.741" stroke="#1A1A1E"/>
<rect x="94.3398" y="34.96" width="42.32" height="5.52" rx="2.76" fill="#1A1A1E"/>
<rect x="92.5" y="190.44" width="23" height="5.52" rx="2.76" fill="#1A1A1E"/>
<rect x="92.5" y="214.36" width="13.8" height="5.52" rx="2.76" fill="#1A1A1E"/>
<rect x="147.699" y="190.44" width="41.4" height="5.52" rx="2.76" fill="#1A1A1E"/>
<g clip-path="url(#clip0_1782_7584)">
<path d="M47.4199 175.72C42.0696 175.72 37.7168 180.073 37.7168 185.423C37.7168 190.773 42.0696 195.126 47.4199 195.126C52.7702 195.126 57.123 190.773 57.123 185.423C57.123 180.073 52.7702 175.72 47.4199 175.72Z" fill="#0E0E12"/>
<path d="M59.4925 201.465C56.836 198.768 53.3143 197.282 49.5762 197.282H45.2637C41.5256 197.282 38.0039 198.768 35.3474 201.465C32.7039 204.149 31.248 207.692 31.248 211.442C31.248 212.037 31.7308 212.52 32.3262 212.52H62.5137C63.1091 212.52 63.5918 212.037 63.5918 211.442C63.5918 207.692 62.136 204.149 59.4925 201.465Z" fill="#0E0E12"/>
</g>
<defs>
<clipPath id="clip0_1782_7584">
<rect width="36.8" height="36.8" fill="white" transform="translate(29.0195 175.72)"/>
</clipPath>
</defs>
</svg>
