<svg viewBox="0 0 60 61" fill="none" xmlns="http://www.w3.org/2000/svg">
  <g clip-path="url(#clip0_728_3861)">
    <path d="M1.75781 60.5H33.6328C34.6037 60.5 35.3906 59.7131 35.3906 58.7422V56.8672C35.3906 54.9254 33.8168 53.3516 31.875 53.3516V51.25C31.875 48.4672 29.6109 46.2031 26.8282 46.2031H8.56247C5.77972 46.2031 3.51562 48.4672 3.51562 51.25V53.3516C1.57379 53.3516 0 54.9254 0 56.8672V58.7422C0 59.7126 0.787354 60.5 1.75781 60.5Z" fill="currentcolor"/>
    <path d="M22 39.2122C23.1682 40.7626 25.3728 41.0725 26.9233 39.9038C28.4742 38.7356 28.7836 36.531 27.6154 34.9801L17.0365 20.9419C15.8678 19.391 13.6637 19.0815 12.1132 20.2498C10.5623 21.4184 10.2524 23.6226 11.4211 25.1735L22 39.2122Z" fill="currentcolor"/>
    <path d="M47.2691 20.1701C48.4378 21.7206 50.6419 22.0305 52.1928 20.8618C53.7433 19.6936 54.0532 17.4894 52.8845 15.9385L42.3056 1.9003C41.1374 0.349398 38.9328 0.039492 37.3823 1.20816C35.8319 2.37683 35.522 4.58097 36.6907 6.13187L47.2691 20.1701Z" fill="currentcolor"/>
    <path d="M39.5582 30.3828C42.1565 28.425 44.107 25.9938 45.327 23.434L33.0177 7.09912C30.2208 7.5665 27.3465 8.77087 24.7477 10.7292C22.1495 12.687 20.1989 15.1182 18.979 17.6776L31.2883 34.0133C34.0852 33.546 36.9595 32.3411 39.5582 30.3828Z" fill="currentcolor"/>
    <path d="M43.3049 30.8406C42.4864 31.6746 41.6244 32.4743 40.6741 33.1907C39.7233 33.9067 38.7167 34.515 37.6899 35.0721L39.982 38.114L45.5974 33.8829L43.3049 30.8406Z" fill="currentcolor"/>
    <path d="M47.713 36.6903L42.0977 40.9214L52.6766 54.9601C53.8452 56.511 56.0494 56.8205 57.5998 55.6523C59.1507 54.4836 59.4602 52.2795 58.292 50.7286L47.713 36.6903Z" fill="currentcolor"/>
  </g>
  <defs>
    <clipPath id="clip0_728_3861">
      <rect width="60" height="60" fill="currentcolor" transform="translate(0 0.5)"/>
    </clipPath>
  </defs>
</svg>
