<svg viewBox="0 0 80 80" fill="none" xmlns="http://www.w3.org/2000/svg">
  <g clip-path="url(#clip0_2189_8108)">
    <path fill-rule="evenodd" clip-rule="evenodd" d="M66.9698 63.614L58.5003 70.3203C56.8628 71.5982 54.5658 71.5982 52.9283 70.3203L44.4566 63.6126C34.5895 56.1129 27.658 44.4632 27.5 32.0706L26.8998 21.2842H4.28578C1.91984 21.2868 0.00265625 23.204 0 25.57V69.8557C0.00265625 72.2217 1.91984 74.1389 4.28578 74.1415H75.7144C78.0803 74.1389 79.9975 72.2217 80.0002 69.8557V46.5014C77.2136 53.2387 72.7233 59.1357 66.9698 63.614ZM5.66201 57.6237C4.77958 57.8555 4.16311 58.4506 4.02797 59.2011C3.89777 59.9242 4.3726 60.7313 5.14522 61.1003C5.17381 61.114 5.19962 61.1269 5.22408 61.1392C5.25226 61.1533 5.27866 61.1666 5.30544 61.179C5.70021 61.3616 6.1798 61.3609 13.7316 61.3502C14.177 61.3496 14.647 61.3489 15.1431 61.3482L24.2773 61.3359L24.6588 61.187C26.446 60.489 26.4474 58.4291 24.661 57.7315L24.2773 57.5817L15.0835 57.5728C7.76741 57.5657 5.84321 57.5761 5.66201 57.6237ZM5.75338 65.798C4.83503 66.0015 4.19869 66.5797 4.0315 67.3623C3.81796 68.3614 4.71485 69.3584 5.97511 69.5228C6.44653 69.5843 18.5474 69.5879 19.061 69.5267C20.0641 69.4072 20.8446 68.7608 21.0161 67.9075C21.2074 66.9559 20.3722 65.979 19.1937 65.7757C18.9826 65.7393 16.9671 65.7246 12.4763 65.7268C7.05747 65.7294 6.0128 65.7404 5.75338 65.798ZM10.2771 34.1491C10.6515 33.9666 11.1976 33.7568 11.4908 33.683C11.8579 33.5905 12.3975 33.5571 13.2237 33.5758C14.5621 33.6061 15.2955 33.8004 16.2979 34.3907C17.4975 35.097 18.568 36.4578 19.098 37.9501C19.3666 38.7066 19.433 40.3797 19.2289 41.2473C19.0477 42.0168 18.5777 43.0251 18.1222 43.6216L17.791 44.0552L18.23 44.3539C18.8643 44.7856 19.963 45.8671 20.4314 46.5206C21.4327 47.9178 22.0246 49.5808 22.1044 51.2206C22.1481 52.1208 22.1322 52.2815 21.9671 52.605C21.7394 53.0513 21.535 53.2434 21.0912 53.4289C20.7946 53.5527 19.7693 53.5708 13.0251 53.5708C5.34025 53.5708 5.2966 53.5698 4.89439 53.375C4.64982 53.2566 4.39204 53.0309 4.24226 52.8039C4.00968 52.4516 3.99491 52.3661 4.001 51.4077C4.01752 48.8194 5.42064 46.1702 7.65465 44.509L8.28426 44.0408L7.97333 43.6144C5.62248 40.3896 6.71899 35.884 10.2771 34.1491ZM15.7016 38.7006C15.4311 38.1117 14.8927 37.5428 14.337 37.2591C13.7716 36.9702 12.6836 36.8811 12.1515 37.0802C11.3408 37.3834 10.7165 37.9556 10.377 38.7071C10.091 39.3402 10.1109 40.3543 10.4225 41.0191C11.4755 43.2663 14.5786 43.2912 15.6705 41.0614C15.9754 40.439 15.99 39.3287 15.7016 38.7006ZM17.48 48.3442C16.8295 47.4789 15.9565 46.8713 14.751 46.4451C14.4135 46.3258 13.9085 46.2507 13.2699 46.2247C11.5437 46.1545 10.3267 46.6365 9.0608 47.8914C8.48546 48.4619 8.23498 48.7953 7.97638 49.3351C7.79142 49.7211 7.64007 50.0637 7.64007 50.0965C7.64007 50.1292 10.0724 50.156 13.0453 50.156H18.4507L18.3863 49.9484C18.2605 49.5423 17.8973 48.8994 17.48 48.3442Z" fill="currentcolor"/>
    <path d="M79.3827 16.0491L57.3898 5.38227C56.3307 4.87258 55.0971 4.87258 54.038 5.38227L32.0445 16.0491C31.6737 16.2199 31.4338 16.5882 31.4277 16.9965V30.0923C31.5887 41.6101 37.0482 52.4112 46.2268 59.371L54.7005 66.0801C55.2963 66.5432 56.1304 66.5432 56.7263 66.0801L65.1973 59.3724C74.3774 52.4129 79.838 41.6112 79.9991 30.0923V16.9965C79.9935 16.588 79.7537 16.2196 79.3827 16.0491ZM55.7135 44.9985C47.8627 44.967 41.5212 38.5827 41.5421 30.732C41.563 22.8812 47.9388 16.531 55.7896 16.5415C63.6404 16.5521 69.9993 22.9193 69.9993 30.7701C69.9748 38.6404 63.584 45.0057 55.7135 44.9985Z" fill="currentcolor"/>
    <path d="M55.6948 21C49.7981 21 45 25.4864 45 31C45 36.5136 49.7981 41 55.6948 41C61.5915 41 66.3896 36.5136 66.3896 31C66.3896 25.4864 61.5915 21 55.6948 21ZM60.2291 29.3955C57.1202 33.7565 58.0018 32.5201 56.3401 34.85C55.7433 35.687 54.5349 35.9091 53.6433 35.3534L50.7266 33.5352C49.8333 32.9784 49.5927 31.85 50.1882 31.0136C50.7837 30.1784 51.9905 29.9534 52.885 30.5102L54.1829 31.3193C57.2842 26.9703 57.1174 27.0907 57.6393 26.8125C59.4104 25.8545 61.3673 27.797 60.2291 29.3955Z" fill="currentcolor"/>
  </g>
  <defs>
    <clipPath id="clip0_2189_8108">
      <rect width="80" height="80" fill="currentcolor"/>
    </clipPath>
  </defs>
</svg>
