<svg viewBox="0 0 60 60" fill="none" xmlns="http://www.w3.org/2000/svg">
  <path d="M45.6454 10.2448C45.6454 8.83711 45.0961 7.51195 44.1004 6.51633L39.1291 1.545C38.1473 0.563086 36.7536 0 35.3666 0H35.0645V10.5469H45.6455L45.6454 10.2448Z" fill="currentcolor"/>
  <path d="M32.102 36.2739C32.4384 35.2525 33.0255 34.3015 33.7911 33.5307L45.6929 21.6769V14.0625H33.3414C32.3698 14.0625 31.6406 13.2763 31.6406 12.3047V0H5.27344C2.36555 0 0 2.36555 0 5.27344V54.7266C0 57.6345 2.36555 60 5.27344 60H40.3726C43.2805 60 45.6929 57.6345 45.6929 54.7266V41.6073L43.7612 43.4921C42.9785 44.268 42.0619 44.8328 41.0284 45.1779L35.4391 47.0439L34.5877 47.0903C33.18 47.0903 31.8479 46.4053 31.0206 45.2586C30.2 44.1171 29.9769 42.6374 30.4232 41.3002L32.102 36.2739ZM8.78906 31.6406H26.3101C27.2817 31.6406 28.0679 32.4268 28.0679 33.3984C28.0679 34.37 27.2817 35.1562 26.3101 35.1562H8.78906C7.81746 35.1562 7.03125 34.37 7.03125 33.3984C7.03125 32.4268 7.81746 31.6406 8.78906 31.6406ZM7.03125 26.3672C7.03125 25.3956 7.81746 24.6094 8.78906 24.6094H26.3101C27.2817 24.6094 28.0679 25.3956 28.0679 26.3672C28.0679 27.3388 27.2817 28.125 26.3101 28.125H8.78906C7.81746 28.125 7.03125 27.3388 7.03125 26.3672ZM7.03125 40.4297C7.03125 39.4581 7.81746 38.6719 8.78906 38.6719H26.3101C27.2817 38.6719 28.0679 39.4581 28.0679 40.4297C28.0679 41.4013 27.2817 42.1875 26.3101 42.1875H8.78906C7.81746 42.1875 7.03125 41.4013 7.03125 40.4297ZM33.3414 49.2188C34.313 49.2188 35.0992 50.005 35.0992 50.9766C35.0992 51.9482 34.3131 52.7344 33.3414 52.7344H22.7945C21.8229 52.7344 21.0367 51.9482 21.0367 50.9766C21.0367 50.005 21.8229 49.2188 22.7945 49.2188H33.3414ZM8.78906 21.0938C7.81746 21.0938 7.03125 20.3075 7.03125 19.3359C7.03125 18.3643 7.81746 17.5781 8.78906 17.5781H33.3414C34.313 17.5781 35.0992 18.3643 35.0992 19.3359C35.0992 20.3075 34.313 21.0938 33.3414 21.0938H8.78906Z" fill="currentcolor"/>
  <path d="M35.2869 37.8291L33.7576 42.4171C33.5284 43.1044 34.1824 43.7582 34.8697 43.5286L39.455 41.9972L35.2869 37.8291Z" fill="currentcolor"/>
  <path d="M48.9382 23.3563L37.3613 34.9331L42.3541 39.9259C44.9707 37.3089 50.0619 32.217 53.9304 28.3485L48.9382 23.3563Z" fill="currentcolor"/>
  <path d="M58.9667 18.3145C58.3488 17.6931 57.4389 17.3378 56.4741 17.3378C55.5093 17.3378 54.5996 17.6931 53.9782 18.3163L51.4238 20.8706L56.4158 25.8626C57.8142 24.4641 58.7807 23.4975 58.9704 23.308C60.3434 21.9328 60.3433 19.6929 58.9667 18.3145Z" fill="currentcolor"/>
  <path d="M58.9707 23.3081C58.9708 23.3081 58.9708 23.308 58.9709 23.3079C58.9754 23.3034 58.9774 23.3015 58.981 23.2978C58.9774 23.3016 58.9754 23.3036 58.9707 23.3081Z" fill="currentcolor"/>
  <path d="M58.9805 23.2978C58.9861 23.2922 58.9927 23.2856 58.9961 23.2822C58.9925 23.2858 58.9861 23.2922 58.9805 23.2978Z" fill="currentcolor"/>
  <path d="M58.9961 23.2822C59.0075 23.2709 59.0077 23.2706 58.9961 23.2822V23.2822Z" fill="currentcolor"/>
</svg>
