<svg viewBox="0 0 80 80" fill="none" xmlns="http://www.w3.org/2000/svg">
  <path d="M40 41.1764C25.2213 41.1764 11.8909 39.0562 0 34.8252V27.0588C0 23.1603 3.16031 20 7.05875 20H21.1764V29.4117C21.1764 30.7112 22.2298 31.7647 23.5294 31.7647C24.8289 31.7647 25.8823 30.7112 25.8823 29.4117V20H54.1177V29.4117C54.1177 30.7112 55.1711 31.7647 56.4706 31.7647C57.7702 31.7647 58.8236 30.7112 58.8236 29.4117V20H72.9412C76.8397 20 80 23.1603 80 27.0588V34.8252C68.1091 39.0562 54.7788 41.1764 40 41.1764ZM80 67.0589C80 70.9573 76.8397 74.1177 72.9412 74.1177H7.05875C3.16031 74.1177 0 70.9573 0 67.0589V39.8058C12.0116 43.8595 25.3475 45.8825 40 45.8825C54.6525 45.8825 67.9884 43.8597 80 39.8058V67.0589ZM34.1177 57.647H45.8823C47.1819 57.647 48.2353 56.5936 48.2353 55.2941C48.2353 53.9945 47.1819 52.9411 45.8823 52.9411H34.1177C32.8181 52.9411 31.7647 53.9945 31.7647 55.2941C31.7647 56.5936 32.8181 57.647 34.1177 57.647ZM25.8823 20H21.1764V15.2941C21.1764 10.0961 25.3902 5.88234 30.5881 5.88234H49.4117C54.6097 5.88234 58.8234 10.0961 58.8234 15.2941V20H54.1175V15.2941C54.1175 12.695 52.0106 10.5881 49.4116 10.5881H30.5883C27.9894 10.5881 25.8823 12.695 25.8823 15.2941V20Z" fill="currentcolor"/>
</svg>
