<svg viewBox="0 0 60 60" fill="none" xmlns="http://www.w3.org/2000/svg">
  <path d="M33.5156 0H31.7578V28.2422H60V26.4844C60 11.9447 48.0553 0 33.5156 0Z" fill="currentcolor"/>
  <path d="M9.15039 53.3352C13.7903 57.3984 19.8461 60 26.4843 60C41.024 60 52.8515 48.0553 52.8515 33.5156V31.7578H30.7278L9.15039 53.3352Z" fill="currentcolor"/>
  <path d="M28.2422 7.14844H26.4844C20.744 7.14844 15.4427 9.01266 11.1089 12.1389L28.2422 29.2721V7.14844Z" fill="currentcolor"/>
  <path d="M8.38781 14.3891C3.3075 19.1982 0 25.984 0 33.5156C0 40.1538 2.60156 46.2095 6.6648 50.8495L25.7565 31.7578L8.38781 14.3891Z" fill="currentcolor"/>
</svg>
